<?xml version="1.0" encoding="utf-8" standalone="no"?>
<!DOCTYPE svg PUBLIC "-//W3C//DTD SVG 1.1//EN"
  "http://www.w3.org/Graphics/SVG/1.1/DTD/svg11.dtd">
<svg xmlns:xlink="http://www.w3.org/1999/xlink" width="619.2pt" height="475.2pt" viewBox="0 0 619.2 475.2" xmlns="http://www.w3.org/2000/svg" version="1.1">
 <metadata>
  <rdf:RDF xmlns:dc="http://purl.org/dc/elements/1.1/" xmlns:cc="http://creativecommons.org/ns#" xmlns:rdf="http://www.w3.org/1999/02/22-rdf-syntax-ns#">
   <cc:Work>
    <dc:type rdf:resource="http://purl.org/dc/dcmitype/StillImage"/>
    <dc:date>2026-09-24T04:16:22.402716</dc:date>
    <dc:format>image/svg+xml</dc:format>
    <dc:creator>
     <cc:Agent>
      <dc:title>Matplotlib v3.11.2, https://matplotlib.org/</dc:title>
     </cc:Agent>
    </dc:creator>
   </cc:Work>
  </rdf:RDF>
 </metadata>
 <defs>
  <style type="text/css">*{stroke-linejoin: round; stroke-linecap: butt}</style>
 </defs>
 <g id="figure_1">
  <g id="patch_1">
   <path d="M 0 475.2 
L 619.2 475.2 
L 619.2 0 
L 0 0 
z
" style="fill: #ffffff"/>
  </g>
  <g id="axes_1">
   <g id="patch_2">
    <path d="M 48.285396 226.350078 
L 616.19976 226.350078 
L 616.19976 36.119782 
L 48.285396 36.119782 
z
" style="fill: #ffffff"/>
   </g>
   <g id="matplotlib.axis_1">
    <g id="xtick_1">
     <g id="line2d_1">
      <path d="M 74.099686 226.350078 
L 74.099686 36.119782 
" clip-path="url(#p21f3a8da6a)" style="fill: none; stroke: #b0b0b0; stroke-opacity: 0.2; stroke-width: 0.8; stroke-linecap: square"/>
     </g>
     <g id="line2d_2">
      <defs>
       <path id="ma8d6113dae" d="M 0 0 
L 0 3.5 
" style="stroke: #000000; stroke-width: 0.8"/>
      </defs>
      <g>
       <use xlink:href="#ma8d6113dae" x="74.099686" y="226.350078" style="stroke: #000000; stroke-width: 0.8"/>
      </g>
     </g>
    </g>
    <g id="xtick_2">
     <g id="line2d_3">
      <path d="M 156.26912 226.350078 
L 156.26912 36.119782 
" clip-path="url(#p21f3a8da6a)" style="fill: none; stroke: #b0b0b0; stroke-opacity: 0.2; stroke-width: 0.8; stroke-linecap: square"/>
     </g>
     <g id="line2d_4">
      <g>
       <use xlink:href="#ma8d6113dae" x="156.26912" y="226.350078" style="stroke: #000000; stroke-width: 0.8"/>
      </g>
     </g>
    </g>
    <g id="xtick_3">
     <g id="line2d_5">
      <path d="M 238.438555 226.350078 
L 238.438555 36.119782 
" clip-path="url(#p21f3a8da6a)" style="fill: none; stroke: #b0b0b0; stroke-opacity: 0.2; stroke-width: 0.8; stroke-linecap: square"/>
     </g>
     <g id="line2d_6">
      <g>
       <use xlink:href="#ma8d6113dae" x="238.438555" y="226.350078" style="stroke: #000000; stroke-width: 0.8"/>
      </g>
     </g>
    </g>
    <g id="xtick_4">
     <g id="line2d_7">
      <path d="M 320.60799 226.350078 
L 320.60799 36.119782 
" clip-path="url(#p21f3a8da6a)" style="fill: none; stroke: #b0b0b0; stroke-opacity: 0.2; stroke-width: 0.8; stroke-linecap: square"/>
     </g>
     <g id="line2d_8">
      <g>
       <use xlink:href="#ma8d6113dae" x="320.60799" y="226.350078" style="stroke: #000000; stroke-width: 0.8"/>
      </g>
     </g>
    </g>
    <g id="xtick_5">
     <g id="line2d_9">
      <path d="M 402.777425 226.350078 
L 402.777425 36.119782 
" clip-path="url(#p21f3a8da6a)" style="fill: none; stroke: #b0b0b0; stroke-opacity: 0.2; stroke-width: 0.8; stroke-linecap: square"/>
     </g>
     <g id="line2d_10">
      <g>
       <use xlink:href="#ma8d6113dae" x="402.777425" y="226.350078" style="stroke: #000000; stroke-width: 0.8"/>
      </g>
     </g>
    </g>
    <g id="xtick_6">
     <g id="line2d_11">
      <path d="M 484.946859 226.350078 
L 484.946859 36.119782 
" clip-path="url(#p21f3a8da6a)" style="fill: none; stroke: #b0b0b0; stroke-opacity: 0.2; stroke-width: 0.8; stroke-linecap: square"/>
     </g>
     <g id="line2d_12">
      <g>
       <use xlink:href="#ma8d6113dae" x="484.946859" y="226.350078" style="stroke: #000000; stroke-width: 0.8"/>
      </g>
     </g>
    </g>
    <g id="xtick_7">
     <g id="line2d_13">
      <path d="M 567.116294 226.350078 
L 567.116294 36.119782 
" clip-path="url(#p21f3a8da6a)" style="fill: none; stroke: #b0b0b0; stroke-opacity: 0.2; stroke-width: 0.8; stroke-linecap: square"/>
     </g>
     <g id="line2d_14">
      <g>
       <use xlink:href="#ma8d6113dae" x="567.116294" y="226.350078" style="stroke: #000000; stroke-width: 0.8"/>
      </g>
     </g>
    </g>
   </g>
   <g id="matplotlib.axis_2">
    <g id="ytick_1">
     <g id="line2d_15">
      <path d="M 48.285396 223.467801 
L 616.19976 223.467801 
" clip-path="url(#p21f3a8da6a)" style="fill: none; stroke: #b0b0b0; stroke-opacity: 0.2; stroke-width: 0.8; stroke-linecap: square"/>
     </g>
     <g id="line2d_16">
      <defs>
       <path id="mefe72823ce" d="M 0 0 
L -3.5 0 
" style="stroke: #000000; stroke-width: 0.8"/>
      </defs>
      <g>
       <use xlink:href="#mefe72823ce" x="48.285396" y="223.467801" style="stroke: #000000; stroke-width: 0.8"/>
      </g>
     </g>
     <g id="text_1">
      <!-- −0.8 -->
      <g transform="translate(17.002584 227.266629) scale(0.1 -0.1)">
       <defs>
        <path id="DejaVuSans-c9c" d="M 678 2272 
L 4684 2272 
L 4684 1741 
L 678 1741 
L 678 2272 
z
" transform="scale(0.015625)"/>
        <path id="DejaVuSans-13" d="M 2034 4250 
Q 1547 4250 1301 3770 
Q 1056 3291 1056 2328 
Q 1056 1369 1301 889 
Q 1547 409 2034 409 
Q 2525 409 2770 889 
Q 3016 1369 3016 2328 
Q 3016 3291 2770 3770 
Q 2525 4250 2034 4250 
z
M 2034 4750 
Q 2819 4750 3233 4129 
Q 3647 3509 3647 2328 
Q 3647 1150 3233 529 
Q 2819 -91 2034 -91 
Q 1250 -91 836 529 
Q 422 1150 422 2328 
Q 422 3509 836 4129 
Q 1250 4750 2034 4750 
z
" transform="scale(0.015625)"/>
        <path id="DejaVuSans-11" d="M 684 794 
L 1344 794 
L 1344 0 
L 684 0 
L 684 794 
z
" transform="scale(0.015625)"/>
        <path id="DejaVuSans-1b" d="M 2034 2216 
Q 1584 2216 1326 1975 
Q 1069 1734 1069 1313 
Q 1069 891 1326 650 
Q 1584 409 2034 409 
Q 2484 409 2743 651 
Q 3003 894 3003 1313 
Q 3003 1734 2745 1975 
Q 2488 2216 2034 2216 
z
M 1403 2484 
Q 997 2584 770 2862 
Q 544 3141 544 3541 
Q 544 4100 942 4425 
Q 1341 4750 2034 4750 
Q 2731 4750 3128 4425 
Q 3525 4100 3525 3541 
Q 3525 3141 3298 2862 
Q 3072 2584 2669 2484 
Q 3125 2378 3379 2068 
Q 3634 1759 3634 1313 
Q 3634 634 3220 271 
Q 2806 -91 2034 -91 
Q 1263 -91 848 271 
Q 434 634 434 1313 
Q 434 1759 690 2068 
Q 947 2378 1403 2484 
z
M 1172 3481 
Q 1172 3119 1398 2916 
Q 1625 2713 2034 2713 
Q 2441 2713 2670 2916 
Q 2900 3119 2900 3481 
Q 2900 3844 2670 4047 
Q 2441 4250 2034 4250 
Q 1625 4250 1398 4047 
Q 1172 3844 1172 3481 
z
" transform="scale(0.015625)"/>
       </defs>
       <use xlink:href="#DejaVuSans-c9c"/>
       <use xlink:href="#DejaVuSans-13" transform="translate(83.796875 0)"/>
       <use xlink:href="#DejaVuSans-11" transform="translate(147.421875 0)"/>
       <use xlink:href="#DejaVuSans-1b" transform="translate(179.203125 0)"/>
      </g>
     </g>
    </g>
    <g id="ytick_2">
     <g id="line2d_17">
      <path d="M 48.285396 200.409583 
L 616.19976 200.409583 
" clip-path="url(#p21f3a8da6a)" style="fill: none; stroke: #b0b0b0; stroke-opacity: 0.2; stroke-width: 0.8; stroke-linecap: square"/>
     </g>
     <g id="line2d_18">
      <g>
       <use xlink:href="#mefe72823ce" x="48.285396" y="200.409583" style="stroke: #000000; stroke-width: 0.8"/>
      </g>
     </g>
     <g id="text_2">
      <!-- −0.6 -->
      <g transform="translate(17.002584 204.208411) scale(0.1 -0.1)">
       <defs>
        <path id="DejaVuSans-19" d="M 2113 2584 
Q 1688 2584 1439 2293 
Q 1191 2003 1191 1497 
Q 1191 994 1439 701 
Q 1688 409 2113 409 
Q 2538 409 2786 701 
Q 3034 994 3034 1497 
Q 3034 2003 2786 2293 
Q 2538 2584 2113 2584 
z
M 3366 4563 
L 3366 3988 
Q 3128 4100 2886 4159 
Q 2644 4219 2406 4219 
Q 1781 4219 1451 3797 
Q 1122 3375 1075 2522 
Q 1259 2794 1537 2939 
Q 1816 3084 2150 3084 
Q 2853 3084 3261 2657 
Q 3669 2231 3669 1497 
Q 3669 778 3244 343 
Q 2819 -91 2113 -91 
Q 1303 -91 875 529 
Q 447 1150 447 2328 
Q 447 3434 972 4092 
Q 1497 4750 2381 4750 
Q 2619 4750 2861 4703 
Q 3103 4656 3366 4563 
z
" transform="scale(0.015625)"/>
       </defs>
       <use xlink:href="#DejaVuSans-c9c"/>
       <use xlink:href="#DejaVuSans-13" transform="translate(83.796875 0)"/>
       <use xlink:href="#DejaVuSans-11" transform="translate(147.421875 0)"/>
       <use xlink:href="#DejaVuSans-19" transform="translate(179.203125 0)"/>
      </g>
     </g>
    </g>
    <g id="ytick_3">
     <g id="line2d_19">
      <path d="M 48.285396 177.351366 
L 616.19976 177.351366 
" clip-path="url(#p21f3a8da6a)" style="fill: none; stroke: #b0b0b0; stroke-opacity: 0.2; stroke-width: 0.8; stroke-linecap: square"/>
     </g>
     <g id="line2d_20">
      <g>
       <use xlink:href="#mefe72823ce" x="48.285396" y="177.351366" style="stroke: #000000; stroke-width: 0.8"/>
      </g>
     </g>
     <g id="text_3">
      <!-- −0.4 -->
      <g transform="translate(17.002584 181.150194) scale(0.1 -0.1)">
       <defs>
        <path id="DejaVuSans-17" d="M 2419 4116 
L 825 1625 
L 2419 1625 
L 2419 4116 
z
M 2253 4666 
L 3047 4666 
L 3047 1625 
L 3713 1625 
L 3713 1100 
L 3047 1100 
L 3047 0 
L 2419 0 
L 2419 1100 
L 313 1100 
L 313 1709 
L 2253 4666 
z
" transform="scale(0.015625)"/>
       </defs>
       <use xlink:href="#DejaVuSans-c9c"/>
       <use xlink:href="#DejaVuSans-13" transform="translate(83.796875 0)"/>
       <use xlink:href="#DejaVuSans-11" transform="translate(147.421875 0)"/>
       <use xlink:href="#DejaVuSans-17" transform="translate(179.203125 0)"/>
      </g>
     </g>
    </g>
    <g id="ytick_4">
     <g id="line2d_21">
      <path d="M 48.285396 154.293148 
L 616.19976 154.293148 
" clip-path="url(#p21f3a8da6a)" style="fill: none; stroke: #b0b0b0; stroke-opacity: 0.2; stroke-width: 0.8; stroke-linecap: square"/>
     </g>
     <g id="line2d_22">
      <g>
       <use xlink:href="#mefe72823ce" x="48.285396" y="154.293148" style="stroke: #000000; stroke-width: 0.8"/>
      </g>
     </g>
     <g id="text_4">
      <!-- −0.2 -->
      <g transform="translate(17.002584 158.091976) scale(0.1 -0.1)">
       <defs>
        <path id="DejaVuSans-15" d="M 1228 531 
L 3431 531 
L 3431 0 
L 469 0 
L 469 531 
Q 828 903 1448 1529 
Q 2069 2156 2228 2338 
Q 2531 2678 2651 2914 
Q 2772 3150 2772 3378 
Q 2772 3750 2511 3984 
Q 2250 4219 1831 4219 
Q 1534 4219 1204 4116 
Q 875 4013 500 3803 
L 500 4441 
Q 881 4594 1212 4672 
Q 1544 4750 1819 4750 
Q 2544 4750 2975 4387 
Q 3406 4025 3406 3419 
Q 3406 3131 3298 2873 
Q 3191 2616 2906 2266 
Q 2828 2175 2409 1742 
Q 1991 1309 1228 531 
z
" transform="scale(0.015625)"/>
       </defs>
       <use xlink:href="#DejaVuSans-c9c"/>
       <use xlink:href="#DejaVuSans-13" transform="translate(83.796875 0)"/>
       <use xlink:href="#DejaVuSans-11" transform="translate(147.421875 0)"/>
       <use xlink:href="#DejaVuSans-15" transform="translate(179.203125 0)"/>
      </g>
     </g>
    </g>
    <g id="ytick_5">
     <g id="line2d_23">
      <path d="M 48.285396 131.23493 
L 616.19976 131.23493 
" clip-path="url(#p21f3a8da6a)" style="fill: none; stroke: #b0b0b0; stroke-opacity: 0.2; stroke-width: 0.8; stroke-linecap: square"/>
     </g>
     <g id="line2d_24">
      <g>
       <use xlink:href="#mefe72823ce" x="48.285396" y="131.23493" style="stroke: #000000; stroke-width: 0.8"/>
      </g>
     </g>
     <g id="text_5">
      <!-- 0.0 -->
      <g transform="translate(25.382271 135.033758) scale(0.1 -0.1)">
       <use xlink:href="#DejaVuSans-13"/>
       <use xlink:href="#DejaVuSans-11" transform="translate(63.625 0)"/>
       <use xlink:href="#DejaVuSans-13" transform="translate(95.40625 0)"/>
      </g>
     </g>
    </g>
    <g id="ytick_6">
     <g id="line2d_25">
      <path d="M 48.285396 108.176713 
L 616.19976 108.176713 
" clip-path="url(#p21f3a8da6a)" style="fill: none; stroke: #b0b0b0; stroke-opacity: 0.2; stroke-width: 0.8; stroke-linecap: square"/>
     </g>
     <g id="line2d_26">
      <g>
       <use xlink:href="#mefe72823ce" x="48.285396" y="108.176713" style="stroke: #000000; stroke-width: 0.8"/>
      </g>
     </g>
     <g id="text_6">
      <!-- 0.2 -->
      <g transform="translate(25.382271 111.975541) scale(0.1 -0.1)">
       <use xlink:href="#DejaVuSans-13"/>
       <use xlink:href="#DejaVuSans-11" transform="translate(63.625 0)"/>
       <use xlink:href="#DejaVuSans-15" transform="translate(95.40625 0)"/>
      </g>
     </g>
    </g>
    <g id="ytick_7">
     <g id="line2d_27">
      <path d="M 48.285396 85.118495 
L 616.19976 85.118495 
" clip-path="url(#p21f3a8da6a)" style="fill: none; stroke: #b0b0b0; stroke-opacity: 0.2; stroke-width: 0.8; stroke-linecap: square"/>
     </g>
     <g id="line2d_28">
      <g>
       <use xlink:href="#mefe72823ce" x="48.285396" y="85.118495" style="stroke: #000000; stroke-width: 0.8"/>
      </g>
     </g>
     <g id="text_7">
      <!-- 0.4 -->
      <g transform="translate(25.382271 88.917323) scale(0.1 -0.1)">
       <use xlink:href="#DejaVuSans-13"/>
       <use xlink:href="#DejaVuSans-11" transform="translate(63.625 0)"/>
       <use xlink:href="#DejaVuSans-17" transform="translate(95.40625 0)"/>
      </g>
     </g>
    </g>
    <g id="ytick_8">
     <g id="line2d_29">
      <path d="M 48.285396 62.060277 
L 616.19976 62.060277 
" clip-path="url(#p21f3a8da6a)" style="fill: none; stroke: #b0b0b0; stroke-opacity: 0.2; stroke-width: 0.8; stroke-linecap: square"/>
     </g>
     <g id="line2d_30">
      <g>
       <use xlink:href="#mefe72823ce" x="48.285396" y="62.060277" style="stroke: #000000; stroke-width: 0.8"/>
      </g>
     </g>
     <g id="text_8">
      <!-- 0.6 -->
      <g transform="translate(25.382271 65.859105) scale(0.1 -0.1)">
       <use xlink:href="#DejaVuSans-13"/>
       <use xlink:href="#DejaVuSans-11" transform="translate(63.625 0)"/>
       <use xlink:href="#DejaVuSans-19" transform="translate(95.40625 0)"/>
      </g>
     </g>
    </g>
    <g id="ytick_9">
     <g id="line2d_31">
      <path d="M 48.285396 39.00206 
L 616.19976 39.00206 
" clip-path="url(#p21f3a8da6a)" style="fill: none; stroke: #b0b0b0; stroke-opacity: 0.2; stroke-width: 0.8; stroke-linecap: square"/>
     </g>
     <g id="line2d_32">
      <g>
       <use xlink:href="#mefe72823ce" x="48.285396" y="39.00206" style="stroke: #000000; stroke-width: 0.8"/>
      </g>
     </g>
     <g id="text_9">
      <!-- 0.8 -->
      <g transform="translate(25.382271 42.800888) scale(0.1 -0.1)">
       <use xlink:href="#DejaVuSans-13"/>
       <use xlink:href="#DejaVuSans-11" transform="translate(63.625 0)"/>
       <use xlink:href="#DejaVuSans-1b" transform="translate(95.40625 0)"/>
      </g>
     </g>
    </g>
    <g id="text_10">
     <!-- Fixed-axis $E(e_x,t)$ -->
     <g transform="translate(10.60024 174.53493) rotate(-90) scale(0.1 -0.1)">
      <defs>
       <path id="DejaVuSans-29" d="M 628 4666 
L 3309 4666 
L 3309 4134 
L 1259 4134 
L 1259 2759 
L 3109 2759 
L 3109 2228 
L 1259 2228 
L 1259 0 
L 628 0 
L 628 4666 
z
" transform="scale(0.015625)"/>
       <path id="DejaVuSans-4c" d="M 603 3500 
L 1178 3500 
L 1178 0 
L 603 0 
L 603 3500 
z
M 603 4863 
L 1178 4863 
L 1178 4134 
L 603 4134 
L 603 4863 
z
" transform="scale(0.015625)"/>
       <path id="DejaVuSans-5b" d="M 3513 3500 
L 2247 1797 
L 3578 0 
L 2900 0 
L 1881 1375 
L 863 0 
L 184 0 
L 1544 1831 
L 300 3500 
L 978 3500 
L 1906 2253 
L 2834 3500 
L 3513 3500 
z
" transform="scale(0.015625)"/>
       <path id="DejaVuSans-48" d="M 3597 1894 
L 3597 1613 
L 953 1613 
Q 991 1019 1311 708 
Q 1631 397 2203 397 
Q 2534 397 2845 478 
Q 3156 559 3463 722 
L 3463 178 
Q 3153 47 2828 -22 
Q 2503 -91 2169 -91 
Q 1331 -91 842 396 
Q 353 884 353 1716 
Q 353 2575 817 3079 
Q 1281 3584 2069 3584 
Q 2775 3584 3186 3129 
Q 3597 2675 3597 1894 
z
M 3022 2063 
Q 3016 2534 2758 2815 
Q 2500 3097 2075 3097 
Q 1594 3097 1305 2825 
Q 1016 2553 972 2059 
L 3022 2063 
z
" transform="scale(0.015625)"/>
       <path id="DejaVuSans-47" d="M 2906 2969 
L 2906 4863 
L 3481 4863 
L 3481 0 
L 2906 0 
L 2906 525 
Q 2725 213 2448 61 
Q 2172 -91 1784 -91 
Q 1150 -91 751 415 
Q 353 922 353 1747 
Q 353 2572 751 3078 
Q 1150 3584 1784 3584 
Q 2172 3584 2448 3432 
Q 2725 3281 2906 2969 
z
M 947 1747 
Q 947 1113 1208 752 
Q 1469 391 1925 391 
Q 2381 391 2643 752 
Q 2906 1113 2906 1747 
Q 2906 2381 2643 2742 
Q 2381 3103 1925 3103 
Q 1469 3103 1208 2742 
Q 947 2381 947 1747 
z
" transform="scale(0.015625)"/>
       <path id="DejaVuSans-10" d="M 313 2009 
L 1997 2009 
L 1997 1497 
L 313 1497 
L 313 2009 
z
" transform="scale(0.015625)"/>
       <path id="DejaVuSans-44" d="M 2194 1759 
Q 1497 1759 1228 1600 
Q 959 1441 959 1056 
Q 959 750 1161 570 
Q 1363 391 1709 391 
Q 2188 391 2477 730 
Q 2766 1069 2766 1631 
L 2766 1759 
L 2194 1759 
z
M 3341 1997 
L 3341 0 
L 2766 0 
L 2766 531 
Q 2569 213 2275 61 
Q 1981 -91 1556 -91 
Q 1019 -91 701 211 
Q 384 513 384 1019 
Q 384 1609 779 1909 
Q 1175 2209 1959 2209 
L 2766 2209 
L 2766 2266 
Q 2766 2663 2505 2880 
Q 2244 3097 1772 3097 
Q 1472 3097 1187 3025 
Q 903 2953 641 2809 
L 641 3341 
Q 956 3463 1253 3523 
Q 1550 3584 1831 3584 
Q 2591 3584 2966 3190 
Q 3341 2797 3341 1997 
z
" transform="scale(0.015625)"/>
       <path id="DejaVuSans-56" d="M 2834 3397 
L 2834 2853 
Q 2591 2978 2328 3040 
Q 2066 3103 1784 3103 
Q 1356 3103 1142 2972 
Q 928 2841 928 2578 
Q 928 2378 1081 2264 
Q 1234 2150 1697 2047 
L 1894 2003 
Q 2506 1872 2764 1633 
Q 3022 1394 3022 966 
Q 3022 478 2636 193 
Q 2250 -91 1575 -91 
Q 1294 -91 989 -36 
Q 684 19 347 128 
L 347 722 
Q 666 556 975 473 
Q 1284 391 1588 391 
Q 1994 391 2212 530 
Q 2431 669 2431 922 
Q 2431 1156 2273 1281 
Q 2116 1406 1581 1522 
L 1381 1569 
Q 847 1681 609 1914 
Q 372 2147 372 2553 
Q 372 3047 722 3315 
Q 1072 3584 1716 3584 
Q 2034 3584 2315 3537 
Q 2597 3491 2834 3397 
z
" transform="scale(0.015625)"/>
       <path id="DejaVuSans-3" transform="scale(0.015625)"/>
       <path id="DejaVuSans-Oblique-28" d="M 1081 4666 
L 4031 4666 
L 3928 4134 
L 1606 4134 
L 1338 2753 
L 3566 2753 
L 3463 2222 
L 1234 2222 
L 909 531 
L 3284 531 
L 3181 0 
L 172 0 
L 1081 4666 
z
" transform="scale(0.015625)"/>
       <path id="DejaVuSans-b" d="M 1984 4856 
Q 1566 4138 1362 3434 
Q 1159 2731 1159 2009 
Q 1159 1288 1364 580 
Q 1569 -128 1984 -844 
L 1484 -844 
Q 1016 -109 783 600 
Q 550 1309 550 2009 
Q 550 2706 781 3412 
Q 1013 4119 1484 4856 
L 1984 4856 
z
" transform="scale(0.015625)"/>
       <path id="DejaVuSans-Oblique-48" d="M 3078 2063 
Q 3088 2113 3092 2166 
Q 3097 2219 3097 2272 
Q 3097 2653 2873 2875 
Q 2650 3097 2266 3097 
Q 1838 3097 1509 2826 
Q 1181 2556 1013 2059 
L 3078 2063 
z
M 3578 1613 
L 903 1613 
Q 884 1494 878 1425 
Q 872 1356 872 1306 
Q 872 872 1139 634 
Q 1406 397 1894 397 
Q 2269 397 2603 481 
Q 2938 566 3225 728 
L 3116 159 
Q 2806 34 2476 -28 
Q 2147 -91 1806 -91 
Q 1078 -91 686 257 
Q 294 606 294 1247 
Q 294 1794 489 2264 
Q 684 2734 1063 3103 
Q 1306 3334 1642 3459 
Q 1978 3584 2356 3584 
Q 2950 3584 3301 3228 
Q 3653 2872 3653 2272 
Q 3653 2128 3634 1964 
Q 3616 1800 3578 1613 
z
" transform="scale(0.015625)"/>
       <path id="DejaVuSans-Oblique-5b" d="M 3841 3500 
L 2234 1784 
L 3219 0 
L 2559 0 
L 1819 1388 
L 531 0 
L -166 0 
L 1556 1844 
L 641 3500 
L 1300 3500 
L 1972 2234 
L 3144 3500 
L 3841 3500 
z
" transform="scale(0.015625)"/>
       <path id="DejaVuSans-f" d="M 750 794 
L 1409 794 
L 1409 256 
L 897 -744 
L 494 -744 
L 750 256 
L 750 794 
z
" transform="scale(0.015625)"/>
       <path id="DejaVuSans-Oblique-57" d="M 2706 3500 
L 2619 3053 
L 1472 3053 
L 1100 1153 
Q 1081 1047 1072 975 
Q 1063 903 1063 863 
Q 1063 663 1183 572 
Q 1303 481 1569 481 
L 2150 481 
L 2053 0 
L 1503 0 
Q 991 0 739 200 
Q 488 400 488 806 
Q 488 878 497 964 
Q 506 1050 525 1153 
L 897 3053 
L 409 3053 
L 500 3500 
L 978 3500 
L 1172 4494 
L 1747 4494 
L 1556 3500 
L 2706 3500 
z
" transform="scale(0.015625)"/>
       <path id="DejaVuSans-c" d="M 513 4856 
L 1013 4856 
Q 1481 4119 1714 3412 
Q 1947 2706 1947 2009 
Q 1947 1309 1714 600 
Q 1481 -109 1013 -844 
L 513 -844 
Q 928 -128 1133 580 
Q 1338 1288 1338 2009 
Q 1338 2731 1133 3434 
Q 928 4138 513 4856 
z
" transform="scale(0.015625)"/>
      </defs>
      <use xlink:href="#DejaVuSans-29" transform="translate(0 0.015625)"/>
      <use xlink:href="#DejaVuSans-4c" transform="translate(50.519531 0.015625)"/>
      <use xlink:href="#DejaVuSans-5b" transform="translate(78.302734 0.015625)"/>
      <use xlink:href="#DejaVuSans-48" transform="translate(134.482422 0.015625)"/>
      <use xlink:href="#DejaVuSans-47" transform="translate(196.005859 0.015625)"/>
      <use xlink:href="#DejaVuSans-10" transform="translate(259.482422 0.015625)"/>
      <use xlink:href="#DejaVuSans-44" transform="translate(295.566406 0.015625)"/>
      <use xlink:href="#DejaVuSans-5b" transform="translate(356.845703 0.015625)"/>
      <use xlink:href="#DejaVuSans-4c" transform="translate(416.025391 0.015625)"/>
      <use xlink:href="#DejaVuSans-56" transform="translate(443.808594 0.015625)"/>
      <use xlink:href="#DejaVuSans-3" transform="translate(495.908203 0.015625)"/>
      <use xlink:href="#DejaVuSans-Oblique-28" transform="translate(527.695312 0.015625)"/>
      <use xlink:href="#DejaVuSans-b" transform="translate(590.878906 0.015625)"/>
      <use xlink:href="#DejaVuSans-Oblique-48" transform="translate(629.892578 0.015625)"/>
      <use xlink:href="#DejaVuSans-Oblique-5b" transform="translate(691.416016 -14.984326) scale(0.7)"/>
      <use xlink:href="#DejaVuSans-f" transform="translate(735.576172 0.015625)"/>
      <use xlink:href="#DejaVuSans-Oblique-57" transform="translate(786.845703 0.015625)"/>
      <use xlink:href="#DejaVuSans-c" transform="translate(826.054688 0.015625)"/>
     </g>
    </g>
   </g>
   <g id="line2d_33">
    <path d="M 74.099686 217.703247 
L 590.385471 217.703247 
L 590.385471 217.703247 
" clip-path="url(#p21f3a8da6a)" style="fill: none; stroke: #335c81; stroke-width: 2; stroke-linecap: square"/>
   </g>
   <g id="line2d_34">
    <path d="M 74.099686 217.703247 
L 77.971829 217.607256 
L 81.843972 217.319497 
L 86.361473 216.742281 
L 90.878974 215.906678 
L 95.396474 214.815214 
L 99.913975 213.471186 
L 104.431475 211.878656 
L 108.948976 210.042437 
L 113.466477 207.968077 
L 117.983977 205.661844 
L 122.501478 203.130708 
L 127.664336 199.97243 
L 132.827194 196.542877 
L 137.990051 192.855583 
L 143.798267 188.417454 
L 149.606482 183.693732 
L 156.060054 178.138937 
L 162.513626 172.294963 
L 169.612556 165.57564 
L 178.0022 157.30841 
L 187.682558 147.437477 
L 201.880417 132.593116 
L 221.241134 112.372452 
L 230.921493 102.584701 
L 239.311137 94.418512 
L 246.410066 87.804875 
L 252.863639 82.072344 
L 259.317211 76.642917 
L 265.125426 72.043295 
L 270.933641 67.739299 
L 276.096499 64.179119 
L 281.259357 60.883578 
L 286.422215 57.865681 
L 290.939715 55.462167 
L 295.457216 53.287624 
L 299.974717 51.348623 
L 304.492217 49.651022 
L 309.009718 48.199952 
L 313.527218 46.999798 
L 318.044719 46.054186 
L 322.56222 45.365973 
L 327.07972 44.93724 
L 330.951864 44.777282 
L 334.824007 44.809281 
L 338.69615 45.033167 
L 343.213651 45.536204 
L 347.731152 46.298206 
L 352.248652 47.31687 
L 356.766153 48.589118 
L 361.283654 50.111105 
L 365.801154 51.878233 
L 370.318655 53.885162 
L 374.836155 56.125826 
L 379.353656 58.593455 
L 384.516514 61.681924 
L 389.679372 65.044886 
L 394.84223 68.66907 
L 400.650445 73.040671 
L 406.45866 77.702919 
L 412.912232 83.195708 
L 419.365804 88.984674 
L 426.464734 95.651977 
L 434.209021 103.226337 
L 443.244022 112.372452 
L 455.505809 125.127934 
L 481.320099 152.080285 
L 491.000457 161.799305 
L 498.744744 169.27573 
L 505.843673 175.834068 
L 512.297246 181.508749 
L 518.750818 186.873475 
L 524.559033 191.409338 
L 530.367248 195.644665 
L 535.530106 199.139963 
L 540.692964 202.367271 
L 545.855822 205.313852 
L 550.373322 207.652656 
L 554.890823 209.760541 
L 559.408324 211.631137 
L 563.925824 213.258792 
L 568.443325 214.638586 
L 572.960825 215.766351 
L 577.478326 216.638678 
L 581.995827 217.252932 
L 586.513327 217.607256 
L 590.385471 217.703247 
L 590.385471 217.703247 
" clip-path="url(#p21f3a8da6a)" style="fill: none; stroke: #d28b30; stroke-width: 2; stroke-linecap: square"/>
   </g>
   <g id="line2d_35">
    <path d="M 74.099686 217.703247 
L 76.035757 217.607256 
L 77.971829 217.319497 
L 79.907901 216.840609 
L 81.843972 216.171655 
L 83.780044 215.31412 
L 86.361473 213.880743 
L 88.942902 212.121201 
L 91.524331 210.042437 
L 94.10576 207.652656 
L 96.687189 204.96129 
L 99.268618 201.978959 
L 102.495404 197.859913 
L 105.72219 193.330102 
L 108.948976 188.417454 
L 112.821119 182.059731 
L 116.693263 175.250884 
L 121.210763 166.817884 
L 126.373621 156.660102 
L 132.827194 143.418423 
L 152.833268 101.944833 
L 157.996126 91.979136 
L 162.513626 83.761852 
L 166.38577 77.171251 
L 170.257913 71.060523 
L 173.484699 66.374089 
L 176.711485 62.087544 
L 179.938271 58.227316 
L 182.5197 55.462167 
L 185.101129 52.996059 
L 187.682558 50.838723 
L 190.263987 48.998675 
L 192.845416 47.483175 
L 194.781488 46.563183 
L 196.71756 45.831183 
L 198.653631 45.2888 
L 200.589703 44.93724 
L 202.525775 44.777282 
L 204.461846 44.809281 
L 206.397918 45.033167 
L 208.33399 45.448443 
L 210.270061 46.054186 
L 212.206133 46.849051 
L 214.142205 47.831274 
L 216.723634 49.428522 
L 219.305063 51.348623 
L 221.886492 53.583998 
L 224.46792 56.125826 
L 227.049349 58.964075 
L 229.630778 62.087544 
L 232.857564 66.374089 
L 236.084351 71.060523 
L 239.311137 76.117951 
L 243.18328 82.632527 
L 247.055424 89.578501 
L 251.572924 98.144938 
L 256.735782 108.418272 
L 263.834712 123.097543 
L 279.323285 155.358821 
L 284.486143 165.57564 
L 289.003644 174.076407 
L 292.875787 180.954666 
L 296.74793 187.39161 
L 299.974717 192.377263 
L 303.201503 196.985954 
L 306.428289 201.189268 
L 309.009718 204.242544 
L 311.591147 207.007693 
L 314.172576 209.473802 
L 316.754005 211.631137 
L 319.335433 213.471186 
L 321.916862 214.986685 
L 323.852934 215.906678 
L 325.789006 216.638678 
L 327.725078 217.18106 
L 329.661149 217.532621 
L 331.597221 217.692579 
L 333.533293 217.66058 
L 335.469364 217.436694 
L 337.405436 217.021418 
L 339.341508 216.415675 
L 341.277579 215.620809 
L 343.213651 214.638586 
L 345.79508 213.041338 
L 348.376509 211.121238 
L 350.957938 208.885863 
L 353.539367 206.344035 
L 356.120796 203.505786 
L 358.702225 200.382316 
L 361.929011 196.095771 
L 365.155797 191.409338 
L 368.382583 186.351909 
L 372.254726 179.837334 
L 376.12687 172.891359 
L 380.64437 164.324922 
L 385.807228 154.051589 
L 392.906158 139.372318 
L 408.394731 107.111039 
L 413.557589 96.894221 
L 418.07509 88.393454 
L 421.947233 81.515194 
L 425.819377 75.078251 
L 429.046163 70.092598 
L 432.272949 65.483907 
L 435.499735 61.280593 
L 438.081164 58.227316 
L 440.662593 55.462167 
L 443.244022 52.996059 
L 445.825451 50.838723 
L 448.40688 48.998675 
L 450.988309 47.483175 
L 452.92438 46.563183 
L 454.860452 45.831183 
L 456.796524 45.2888 
L 458.732596 44.93724 
L 460.668667 44.777282 
L 462.604739 44.809281 
L 464.540811 45.033167 
L 466.476882 45.448443 
L 468.412954 46.054186 
L 470.349026 46.849051 
L 472.285097 47.831274 
L 474.866526 49.428522 
L 477.447955 51.348623 
L 480.029384 53.583998 
L 482.610813 56.125826 
L 485.192242 58.964075 
L 487.773671 62.087544 
L 491.000457 66.374089 
L 494.227243 71.060523 
L 497.454029 76.117951 
L 501.326173 82.632527 
L 505.198316 89.578501 
L 509.715817 98.144938 
L 514.878675 108.418272 
L 521.977604 123.097543 
L 537.466178 155.358821 
L 542.629036 165.57564 
L 547.146536 174.076407 
L 551.01868 180.954666 
L 554.890823 187.39161 
L 558.117609 192.377263 
L 561.344395 196.985954 
L 564.571181 201.189268 
L 567.15261 204.242544 
L 569.734039 207.007693 
L 572.315468 209.473802 
L 574.896897 211.631137 
L 577.478326 213.471186 
L 580.059755 214.986685 
L 581.995827 215.906678 
L 583.931898 216.638678 
L 585.86797 217.18106 
L 587.804042 217.532621 
L 589.740114 217.692579 
L 590.385471 217.703247 
L 590.385471 217.703247 
" clip-path="url(#p21f3a8da6a)" style="fill: none; stroke: #a54865; stroke-width: 2; stroke-linecap: square"/>
   </g>
   <g id="line2d_36">
    <path d="M 138.635409 226.350078 
L 138.635409 36.119782 
" clip-path="url(#p21f3a8da6a)" style="fill: none; stroke-dasharray: 1,1.65; stroke-dashoffset: 0; stroke: #666666"/>
   </g>
   <g id="patch_3">
    <path d="M 48.285396 226.350078 
L 48.285396 36.119782 
" style="fill: none; stroke: #000000; stroke-width: 0.8; stroke-linejoin: miter; stroke-linecap: square"/>
   </g>
   <g id="patch_4">
    <path d="M 48.285396 226.350078 
L 616.19976 226.350078 
" style="fill: none; stroke: #000000; stroke-width: 0.8; stroke-linejoin: miter; stroke-linecap: square"/>
   </g>
   <g id="patch_5">
    <path d="M 217.481094 162.017758 
Q 178.990646 146.990369 141.541671 132.36959 
" style="fill: none; stroke: #666666; stroke-linecap: round"/>
    <path d="M 144.240522 135.355592 
L 141.541671 132.36959 
L 145.549783 132.002111 
" style="fill: none; stroke: #666666; stroke-linecap: round"/>
   </g>
   <g id="text_11">
    <!-- Checked witness: $t=\pi/4$ -->
    <g transform="translate(180.919951 171.586811) scale(0.09 -0.09)">
     <defs>
      <path id="DejaVuSans-26" d="M 4122 4306 
L 4122 3641 
Q 3803 3938 3442 4084 
Q 3081 4231 2675 4231 
Q 1875 4231 1450 3742 
Q 1025 3253 1025 2328 
Q 1025 1406 1450 917 
Q 1875 428 2675 428 
Q 3081 428 3442 575 
Q 3803 722 4122 1019 
L 4122 359 
Q 3791 134 3420 21 
Q 3050 -91 2638 -91 
Q 1578 -91 968 557 
Q 359 1206 359 2328 
Q 359 3453 968 4101 
Q 1578 4750 2638 4750 
Q 3056 4750 3426 4639 
Q 3797 4528 4122 4306 
z
" transform="scale(0.015625)"/>
      <path id="DejaVuSans-4b" d="M 3513 2113 
L 3513 0 
L 2938 0 
L 2938 2094 
Q 2938 2591 2744 2837 
Q 2550 3084 2163 3084 
Q 1697 3084 1428 2787 
Q 1159 2491 1159 1978 
L 1159 0 
L 581 0 
L 581 4863 
L 1159 4863 
L 1159 2956 
Q 1366 3272 1645 3428 
Q 1925 3584 2291 3584 
Q 2894 3584 3203 3211 
Q 3513 2838 3513 2113 
z
" transform="scale(0.015625)"/>
      <path id="DejaVuSans-46" d="M 3122 3366 
L 3122 2828 
Q 2878 2963 2633 3030 
Q 2388 3097 2138 3097 
Q 1578 3097 1268 2742 
Q 959 2388 959 1747 
Q 959 1106 1268 751 
Q 1578 397 2138 397 
Q 2388 397 2633 464 
Q 2878 531 3122 666 
L 3122 134 
Q 2881 22 2623 -34 
Q 2366 -91 2075 -91 
Q 1284 -91 818 406 
Q 353 903 353 1747 
Q 353 2603 823 3093 
Q 1294 3584 2113 3584 
Q 2378 3584 2631 3529 
Q 2884 3475 3122 3366 
z
" transform="scale(0.015625)"/>
      <path id="DejaVuSans-4e" d="M 581 4863 
L 1159 4863 
L 1159 1991 
L 2875 3500 
L 3609 3500 
L 1753 1863 
L 3688 0 
L 2938 0 
L 1159 1709 
L 1159 0 
L 581 0 
L 581 4863 
z
" transform="scale(0.015625)"/>
      <path id="DejaVuSans-5a" d="M 269 3500 
L 844 3500 
L 1563 769 
L 2278 3500 
L 2956 3500 
L 3675 769 
L 4391 3500 
L 4966 3500 
L 4050 0 
L 3372 0 
L 2619 2869 
L 1863 0 
L 1184 0 
L 269 3500 
z
" transform="scale(0.015625)"/>
      <path id="DejaVuSans-57" d="M 1172 4494 
L 1172 3500 
L 2356 3500 
L 2356 3053 
L 1172 3053 
L 1172 1153 
Q 1172 725 1289 603 
Q 1406 481 1766 481 
L 2356 481 
L 2356 0 
L 1766 0 
Q 1100 0 847 248 
Q 594 497 594 1153 
L 594 3053 
L 172 3053 
L 172 3500 
L 594 3500 
L 594 4494 
L 1172 4494 
z
" transform="scale(0.015625)"/>
      <path id="DejaVuSans-51" d="M 3513 2113 
L 3513 0 
L 2938 0 
L 2938 2094 
Q 2938 2591 2744 2837 
Q 2550 3084 2163 3084 
Q 1697 3084 1428 2787 
Q 1159 2491 1159 1978 
L 1159 0 
L 581 0 
L 581 3500 
L 1159 3500 
L 1159 2956 
Q 1366 3272 1645 3428 
Q 1925 3584 2291 3584 
Q 2894 3584 3203 3211 
Q 3513 2838 3513 2113 
z
" transform="scale(0.015625)"/>
      <path id="DejaVuSans-1d" d="M 750 794 
L 1409 794 
L 1409 0 
L 750 0 
L 750 794 
z
M 750 3309 
L 1409 3309 
L 1409 2516 
L 750 2516 
L 750 3309 
z
" transform="scale(0.015625)"/>
      <path id="DejaVuSans-20" d="M 678 2906 
L 4684 2906 
L 4684 2381 
L 678 2381 
L 678 2906 
z
M 678 1631 
L 4684 1631 
L 4684 1100 
L 678 1100 
L 678 1631 
z
" transform="scale(0.015625)"/>
      <path id="DejaVuSans-Oblique-354" d="M 584 3500 
L 3938 3500 
L 3825 2925 
L 3384 2925 
L 2966 775 
Q 2922 550 2981 450 
Q 3038 353 3209 353 
Q 3256 353 3325 363 
Q 3397 369 3419 372 
L 3338 -44 
Q 3222 -84 3103 -103 
Q 2981 -122 2866 -122 
Q 2491 -122 2388 81 
Q 2284 288 2391 838 
L 2797 2925 
L 1506 2925 
L 938 0 
L 350 0 
L 919 2925 
L 472 2925 
L 584 3500 
z
" transform="scale(0.015625)"/>
      <path id="DejaVuSans-12" d="M 1625 4666 
L 2156 4666 
L 531 -594 
L 0 -594 
L 1625 4666 
z
" transform="scale(0.015625)"/>
     </defs>
     <use xlink:href="#DejaVuSans-26" transform="translate(0 0.015625)"/>
     <use xlink:href="#DejaVuSans-4b" transform="translate(69.824219 0.015625)"/>
     <use xlink:href="#DejaVuSans-48" transform="translate(133.203125 0.015625)"/>
     <use xlink:href="#DejaVuSans-46" transform="translate(194.726562 0.015625)"/>
     <use xlink:href="#DejaVuSans-4e" transform="translate(249.707031 0.015625)"/>
     <use xlink:href="#DejaVuSans-48" transform="translate(303.617188 0.015625)"/>
     <use xlink:href="#DejaVuSans-47" transform="translate(365.140625 0.015625)"/>
     <use xlink:href="#DejaVuSans-3" transform="translate(428.617188 0.015625)"/>
     <use xlink:href="#DejaVuSans-5a" transform="translate(460.404297 0.015625)"/>
     <use xlink:href="#DejaVuSans-4c" transform="translate(542.191406 0.015625)"/>
     <use xlink:href="#DejaVuSans-57" transform="translate(569.974609 0.015625)"/>
     <use xlink:href="#DejaVuSans-51" transform="translate(609.183594 0.015625)"/>
     <use xlink:href="#DejaVuSans-48" transform="translate(672.5625 0.015625)"/>
     <use xlink:href="#DejaVuSans-56" transform="translate(734.085938 0.015625)"/>
     <use xlink:href="#DejaVuSans-56" transform="translate(786.185547 0.015625)"/>
     <use xlink:href="#DejaVuSans-1d" transform="translate(838.285156 0.015625)"/>
     <use xlink:href="#DejaVuSans-3" transform="translate(871.976562 0.015625)"/>
     <use xlink:href="#DejaVuSans-Oblique-57" transform="translate(903.763672 0.015625)"/>
     <use xlink:href="#DejaVuSans-20" transform="translate(962.455078 0.015625)"/>
     <use xlink:href="#DejaVuSans-Oblique-354" transform="translate(1065.726562 0.015625)"/>
     <use xlink:href="#DejaVuSans-12" transform="translate(1125.931641 0.015625)"/>
     <use xlink:href="#DejaVuSans-17" transform="translate(1159.623047 0.015625)"/>
    </g>
   </g>
   <g id="text_12">
    <!-- Same initial even spectrum; different future phase -->
    <g transform="translate(180.446328 30.119782) scale(0.12 -0.12)">
     <defs>
      <path id="DejaVuSans-36" d="M 3425 4513 
L 3425 3897 
Q 3066 4069 2747 4153 
Q 2428 4238 2131 4238 
Q 1616 4238 1336 4038 
Q 1056 3838 1056 3469 
Q 1056 3159 1242 3001 
Q 1428 2844 1947 2747 
L 2328 2669 
Q 3034 2534 3370 2195 
Q 3706 1856 3706 1288 
Q 3706 609 3251 259 
Q 2797 -91 1919 -91 
Q 1588 -91 1214 -16 
Q 841 59 441 206 
L 441 856 
Q 825 641 1194 531 
Q 1563 422 1919 422 
Q 2459 422 2753 634 
Q 3047 847 3047 1241 
Q 3047 1584 2836 1778 
Q 2625 1972 2144 2069 
L 1759 2144 
Q 1053 2284 737 2584 
Q 422 2884 422 3419 
Q 422 4038 858 4394 
Q 1294 4750 2059 4750 
Q 2388 4750 2728 4690 
Q 3069 4631 3425 4513 
z
" transform="scale(0.015625)"/>
      <path id="DejaVuSans-50" d="M 3328 2828 
Q 3544 3216 3844 3400 
Q 4144 3584 4550 3584 
Q 5097 3584 5394 3201 
Q 5691 2819 5691 2113 
L 5691 0 
L 5113 0 
L 5113 2094 
Q 5113 2597 4934 2840 
Q 4756 3084 4391 3084 
Q 3944 3084 3684 2787 
Q 3425 2491 3425 1978 
L 3425 0 
L 2847 0 
L 2847 2094 
Q 2847 2600 2669 2842 
Q 2491 3084 2119 3084 
Q 1678 3084 1418 2786 
Q 1159 2488 1159 1978 
L 1159 0 
L 581 0 
L 581 3500 
L 1159 3500 
L 1159 2956 
Q 1356 3278 1631 3431 
Q 1906 3584 2284 3584 
Q 2666 3584 2933 3390 
Q 3200 3197 3328 2828 
z
" transform="scale(0.015625)"/>
      <path id="DejaVuSans-4f" d="M 603 4863 
L 1178 4863 
L 1178 0 
L 603 0 
L 603 4863 
z
" transform="scale(0.015625)"/>
      <path id="DejaVuSans-59" d="M 191 3500 
L 800 3500 
L 1894 563 
L 2988 3500 
L 3597 3500 
L 2284 0 
L 1503 0 
L 191 3500 
z
" transform="scale(0.015625)"/>
      <path id="DejaVuSans-53" d="M 1159 525 
L 1159 -1331 
L 581 -1331 
L 581 3500 
L 1159 3500 
L 1159 2969 
Q 1341 3281 1617 3432 
Q 1894 3584 2278 3584 
Q 2916 3584 3314 3078 
Q 3713 2572 3713 1747 
Q 3713 922 3314 415 
Q 2916 -91 2278 -91 
Q 1894 -91 1617 61 
Q 1341 213 1159 525 
z
M 3116 1747 
Q 3116 2381 2855 2742 
Q 2594 3103 2138 3103 
Q 1681 3103 1420 2742 
Q 1159 2381 1159 1747 
Q 1159 1113 1420 752 
Q 1681 391 2138 391 
Q 2594 391 2855 752 
Q 3116 1113 3116 1747 
z
" transform="scale(0.015625)"/>
      <path id="DejaVuSans-55" d="M 2631 2963 
Q 2534 3019 2420 3045 
Q 2306 3072 2169 3072 
Q 1681 3072 1420 2755 
Q 1159 2438 1159 1844 
L 1159 0 
L 581 0 
L 581 3500 
L 1159 3500 
L 1159 2956 
Q 1341 3275 1631 3429 
Q 1922 3584 2338 3584 
Q 2397 3584 2469 3576 
Q 2541 3569 2628 3553 
L 2631 2963 
z
" transform="scale(0.015625)"/>
      <path id="DejaVuSans-58" d="M 544 1381 
L 544 3500 
L 1119 3500 
L 1119 1403 
Q 1119 906 1312 657 
Q 1506 409 1894 409 
Q 2359 409 2629 706 
Q 2900 1003 2900 1516 
L 2900 3500 
L 3475 3500 
L 3475 0 
L 2900 0 
L 2900 538 
Q 2691 219 2414 64 
Q 2138 -91 1772 -91 
Q 1169 -91 856 284 
Q 544 659 544 1381 
z
M 1991 3584 
L 1991 3584 
z
" transform="scale(0.015625)"/>
      <path id="DejaVuSans-1e" d="M 750 3309 
L 1409 3309 
L 1409 2516 
L 750 2516 
L 750 3309 
z
M 750 794 
L 1409 794 
L 1409 256 
L 897 -744 
L 494 -744 
L 750 256 
L 750 794 
z
" transform="scale(0.015625)"/>
      <path id="DejaVuSans-13ae" d="M 4531 4863 
L 4531 4384 
L 3981 4384 
Q 3672 4384 3551 4259 
Q 3431 4134 3431 3809 
L 3431 3500 
L 4378 3500 
L 4378 3053 
L 3431 3053 
L 3431 0 
L 2853 0 
L 2853 3053 
L 1275 3053 
L 1275 0 
L 697 0 
L 697 3053 
L 147 3053 
L 147 3500 
L 697 3500 
L 697 3744 
Q 697 4328 969 4595 
Q 1241 4863 1831 4863 
L 2375 4863 
L 2375 4384 
L 1825 4384 
Q 1516 4384 1394 4259 
Q 1275 4134 1275 3809 
L 1275 3500 
L 2853 3500 
L 2853 3744 
Q 2853 4328 3125 4595 
Q 3397 4863 3988 4863 
L 4531 4863 
z
" transform="scale(0.015625)"/>
      <path id="DejaVuSans-49" d="M 2375 4863 
L 2375 4384 
L 1825 4384 
Q 1516 4384 1395 4259 
Q 1275 4134 1275 3809 
L 1275 3500 
L 2222 3500 
L 2222 3053 
L 1275 3053 
L 1275 0 
L 697 0 
L 697 3053 
L 147 3053 
L 147 3500 
L 697 3500 
L 697 3744 
Q 697 4328 969 4595 
Q 1241 4863 1831 4863 
L 2375 4863 
z
" transform="scale(0.015625)"/>
     </defs>
     <use xlink:href="#DejaVuSans-36"/>
     <use xlink:href="#DejaVuSans-44" transform="translate(63.484375 0)"/>
     <use xlink:href="#DejaVuSans-50" transform="translate(124.765625 0)"/>
     <use xlink:href="#DejaVuSans-48" transform="translate(222.171875 0)"/>
     <use xlink:href="#DejaVuSans-3" transform="translate(283.703125 0)"/>
     <use xlink:href="#DejaVuSans-4c" transform="translate(315.484375 0)"/>
     <use xlink:href="#DejaVuSans-51" transform="translate(343.265625 0)"/>
     <use xlink:href="#DejaVuSans-4c" transform="translate(406.640625 0)"/>
     <use xlink:href="#DejaVuSans-57" transform="translate(434.421875 0)"/>
     <use xlink:href="#DejaVuSans-4c" transform="translate(473.625 0)"/>
     <use xlink:href="#DejaVuSans-44" transform="translate(501.40625 0)"/>
     <use xlink:href="#DejaVuSans-4f" transform="translate(562.6875 0)"/>
     <use xlink:href="#DejaVuSans-3" transform="translate(590.46875 0)"/>
     <use xlink:href="#DejaVuSans-48" transform="translate(622.25 0)"/>
     <use xlink:href="#DejaVuSans-59" transform="translate(683.78125 0)"/>
     <use xlink:href="#DejaVuSans-48" transform="translate(742.96875 0)"/>
     <use xlink:href="#DejaVuSans-51" transform="translate(804.5 0)"/>
     <use xlink:href="#DejaVuSans-3" transform="translate(867.875 0)"/>
     <use xlink:href="#DejaVuSans-56" transform="translate(899.65625 0)"/>
     <use xlink:href="#DejaVuSans-53" transform="translate(951.75 0)"/>
     <use xlink:href="#DejaVuSans-48" transform="translate(1015.234375 0)"/>
     <use xlink:href="#DejaVuSans-46" transform="translate(1076.765625 0)"/>
     <use xlink:href="#DejaVuSans-57" transform="translate(1131.75 0)"/>
     <use xlink:href="#DejaVuSans-55" transform="translate(1170.953125 0)"/>
     <use xlink:href="#DejaVuSans-58" transform="translate(1212.0625 0)"/>
     <use xlink:href="#DejaVuSans-50" transform="translate(1275.4375 0)"/>
     <use xlink:href="#DejaVuSans-1e" transform="translate(1372.84375 0)"/>
     <use xlink:href="#DejaVuSans-3" transform="translate(1406.53125 0)"/>
     <use xlink:href="#DejaVuSans-47" transform="translate(1438.3125 0)"/>
     <use xlink:href="#DejaVuSans-4c" transform="translate(1501.796875 0)"/>
     <use xlink:href="#DejaVuSans-13ae" transform="translate(1529.578125 0)"/>
     <use xlink:href="#DejaVuSans-48" transform="translate(1598.46875 0)"/>
     <use xlink:href="#DejaVuSans-55" transform="translate(1660 0)"/>
     <use xlink:href="#DejaVuSans-48" transform="translate(1698.90625 0)"/>
     <use xlink:href="#DejaVuSans-51" transform="translate(1760.4375 0)"/>
     <use xlink:href="#DejaVuSans-57" transform="translate(1823.8125 0)"/>
     <use xlink:href="#DejaVuSans-3" transform="translate(1863.015625 0)"/>
     <use xlink:href="#DejaVuSans-49" transform="translate(1894.796875 0)"/>
     <use xlink:href="#DejaVuSans-58" transform="translate(1930 0)"/>
     <use xlink:href="#DejaVuSans-57" transform="translate(1993.375 0)"/>
     <use xlink:href="#DejaVuSans-58" transform="translate(2032.578125 0)"/>
     <use xlink:href="#DejaVuSans-55" transform="translate(2095.953125 0)"/>
     <use xlink:href="#DejaVuSans-48" transform="translate(2134.859375 0)"/>
     <use xlink:href="#DejaVuSans-3" transform="translate(2196.390625 0)"/>
     <use xlink:href="#DejaVuSans-53" transform="translate(2228.171875 0)"/>
     <use xlink:href="#DejaVuSans-4b" transform="translate(2291.65625 0)"/>
     <use xlink:href="#DejaVuSans-44" transform="translate(2355.03125 0)"/>
     <use xlink:href="#DejaVuSans-56" transform="translate(2416.3125 0)"/>
     <use xlink:href="#DejaVuSans-48" transform="translate(2468.40625 0)"/>
    </g>
   </g>
   <g id="legend_1">
    <g id="patch_6">
     <path d="M 469.67976 83.826111 
L 609.89976 83.826111 
Q 611.69976 83.826111 611.69976 82.026111 
L 611.69976 42.419783 
Q 611.69976 40.619783 609.89976 40.619783 
L 469.67976 40.619783 
Q 467.87976 40.619783 467.87976 42.419783 
L 467.87976 82.026111 
Q 467.87976 83.826111 469.67976 83.826111 
z
" style="fill: #ffffff; opacity: 0.8; stroke: #cccccc; stroke-linejoin: miter"/>
    </g>
    <g id="line2d_37">
     <path d="M 471.47976 47.909783 
L 480.47976 47.909783 
L 489.47976 47.909783 
" style="fill: none; stroke: #335c81; stroke-width: 2; stroke-linecap: square"/>
    </g>
    <g id="text_13">
     <!-- Hidden rotation $w=0$ -->
     <g transform="translate(496.67976 51.059783) scale(0.09 -0.09)">
      <defs>
       <path id="DejaVuSans-2b" d="M 628 4666 
L 1259 4666 
L 1259 2753 
L 3553 2753 
L 3553 4666 
L 4184 4666 
L 4184 0 
L 3553 0 
L 3553 2222 
L 1259 2222 
L 1259 0 
L 628 0 
L 628 4666 
z
" transform="scale(0.015625)"/>
       <path id="DejaVuSans-52" d="M 1959 3097 
Q 1497 3097 1228 2736 
Q 959 2375 959 1747 
Q 959 1119 1226 758 
Q 1494 397 1959 397 
Q 2419 397 2687 759 
Q 2956 1122 2956 1747 
Q 2956 2369 2687 2733 
Q 2419 3097 1959 3097 
z
M 1959 3584 
Q 2709 3584 3137 3096 
Q 3566 2609 3566 1747 
Q 3566 888 3137 398 
Q 2709 -91 1959 -91 
Q 1206 -91 779 398 
Q 353 888 353 1747 
Q 353 2609 779 3096 
Q 1206 3584 1959 3584 
z
" transform="scale(0.015625)"/>
       <path id="DejaVuSans-Oblique-5a" d="M 544 3500 
L 1113 3500 
L 1259 684 
L 2566 3500 
L 3231 3500 
L 3425 684 
L 4666 3500 
L 5241 3500 
L 3641 0 
L 2969 0 
L 2797 2900 
L 1459 0 
L 781 0 
L 544 3500 
z
" transform="scale(0.015625)"/>
      </defs>
      <use xlink:href="#DejaVuSans-2b" transform="translate(0 0.015625)"/>
      <use xlink:href="#DejaVuSans-4c" transform="translate(75.195312 0.015625)"/>
      <use xlink:href="#DejaVuSans-47" transform="translate(102.978516 0.015625)"/>
      <use xlink:href="#DejaVuSans-47" transform="translate(166.455078 0.015625)"/>
      <use xlink:href="#DejaVuSans-48" transform="translate(229.931641 0.015625)"/>
      <use xlink:href="#DejaVuSans-51" transform="translate(291.455078 0.015625)"/>
      <use xlink:href="#DejaVuSans-3" transform="translate(354.833984 0.015625)"/>
      <use xlink:href="#DejaVuSans-55" transform="translate(386.621094 0.015625)"/>
      <use xlink:href="#DejaVuSans-52" transform="translate(425.734375 0.015625)"/>
      <use xlink:href="#DejaVuSans-57" transform="translate(486.916016 0.015625)"/>
      <use xlink:href="#DejaVuSans-44" transform="translate(526.125 0.015625)"/>
      <use xlink:href="#DejaVuSans-57" transform="translate(587.404297 0.015625)"/>
      <use xlink:href="#DejaVuSans-4c" transform="translate(626.613281 0.015625)"/>
      <use xlink:href="#DejaVuSans-52" transform="translate(654.396484 0.015625)"/>
      <use xlink:href="#DejaVuSans-51" transform="translate(715.578125 0.015625)"/>
      <use xlink:href="#DejaVuSans-3" transform="translate(778.957031 0.015625)"/>
      <use xlink:href="#DejaVuSans-Oblique-5a" transform="translate(810.744141 0.015625)"/>
      <use xlink:href="#DejaVuSans-20" transform="translate(912.013672 0.015625)"/>
      <use xlink:href="#DejaVuSans-13" transform="translate(1015.285156 0.015625)"/>
     </g>
    </g>
    <g id="line2d_38">
     <path d="M 471.47976 61.411892 
L 480.47976 61.411892 
L 489.47976 61.411892 
" style="fill: none; stroke: #d28b30; stroke-width: 2; stroke-linecap: square"/>
    </g>
    <g id="text_14">
     <!-- Hidden rotation $w=0.75$ -->
     <g transform="translate(496.67976 64.561892) scale(0.09 -0.09)">
      <defs>
       <path id="DejaVuSans-1a" d="M 525 4666 
L 3525 4666 
L 3525 4397 
L 1831 0 
L 1172 0 
L 2766 4134 
L 525 4134 
L 525 4666 
z
" transform="scale(0.015625)"/>
       <path id="DejaVuSans-18" d="M 691 4666 
L 3169 4666 
L 3169 4134 
L 1269 4134 
L 1269 2991 
Q 1406 3038 1543 3061 
Q 1681 3084 1819 3084 
Q 2600 3084 3056 2656 
Q 3513 2228 3513 1497 
Q 3513 744 3044 326 
Q 2575 -91 1722 -91 
Q 1428 -91 1123 -41 
Q 819 9 494 109 
L 494 744 
Q 775 591 1075 516 
Q 1375 441 1709 441 
Q 2250 441 2565 725 
Q 2881 1009 2881 1497 
Q 2881 1984 2565 2268 
Q 2250 2553 1709 2553 
Q 1456 2553 1204 2497 
Q 953 2441 691 2322 
L 691 4666 
z
" transform="scale(0.015625)"/>
      </defs>
      <use xlink:href="#DejaVuSans-2b" transform="translate(0 0.015625)"/>
      <use xlink:href="#DejaVuSans-4c" transform="translate(75.195312 0.015625)"/>
      <use xlink:href="#DejaVuSans-47" transform="translate(102.978516 0.015625)"/>
      <use xlink:href="#DejaVuSans-47" transform="translate(166.455078 0.015625)"/>
      <use xlink:href="#DejaVuSans-48" transform="translate(229.931641 0.015625)"/>
      <use xlink:href="#DejaVuSans-51" transform="translate(291.455078 0.015625)"/>
      <use xlink:href="#DejaVuSans-3" transform="translate(354.833984 0.015625)"/>
      <use xlink:href="#DejaVuSans-55" transform="translate(386.621094 0.015625)"/>
      <use xlink:href="#DejaVuSans-52" transform="translate(425.734375 0.015625)"/>
      <use xlink:href="#DejaVuSans-57" transform="translate(486.916016 0.015625)"/>
      <use xlink:href="#DejaVuSans-44" transform="translate(526.125 0.015625)"/>
      <use xlink:href="#DejaVuSans-57" transform="translate(587.404297 0.015625)"/>
      <use xlink:href="#DejaVuSans-4c" transform="translate(626.613281 0.015625)"/>
      <use xlink:href="#DejaVuSans-52" transform="translate(654.396484 0.015625)"/>
      <use xlink:href="#DejaVuSans-51" transform="translate(715.578125 0.015625)"/>
      <use xlink:href="#DejaVuSans-3" transform="translate(778.957031 0.015625)"/>
      <use xlink:href="#DejaVuSans-Oblique-5a" transform="translate(810.744141 0.015625)"/>
      <use xlink:href="#DejaVuSans-20" transform="translate(912.013672 0.015625)"/>
      <use xlink:href="#DejaVuSans-13" transform="translate(1015.285156 0.015625)"/>
      <use xlink:href="#DejaVuSans-11" transform="translate(1078.908203 0.015625)"/>
      <use xlink:href="#DejaVuSans-1a" transform="translate(1110.695312 0.015625)"/>
      <use xlink:href="#DejaVuSans-18" transform="translate(1174.318359 0.015625)"/>
     </g>
    </g>
    <g id="line2d_39">
     <path d="M 471.47976 74.914001 
L 480.47976 74.914001 
L 489.47976 74.914001 
" style="fill: none; stroke: #a54865; stroke-width: 2; stroke-linecap: square"/>
    </g>
    <g id="text_15">
     <!-- Hidden rotation $w=1.5$ -->
     <g transform="translate(496.67976 78.064001) scale(0.09 -0.09)">
      <defs>
       <path id="DejaVuSans-14" d="M 794 531 
L 1825 531 
L 1825 4091 
L 703 3866 
L 703 4441 
L 1819 4666 
L 2450 4666 
L 2450 531 
L 3481 531 
L 3481 0 
L 794 0 
L 794 531 
z
" transform="scale(0.015625)"/>
      </defs>
      <use xlink:href="#DejaVuSans-2b" transform="translate(0 0.015625)"/>
      <use xlink:href="#DejaVuSans-4c" transform="translate(75.195312 0.015625)"/>
      <use xlink:href="#DejaVuSans-47" transform="translate(102.978516 0.015625)"/>
      <use xlink:href="#DejaVuSans-47" transform="translate(166.455078 0.015625)"/>
      <use xlink:href="#DejaVuSans-48" transform="translate(229.931641 0.015625)"/>
      <use xlink:href="#DejaVuSans-51" transform="translate(291.455078 0.015625)"/>
      <use xlink:href="#DejaVuSans-3" transform="translate(354.833984 0.015625)"/>
      <use xlink:href="#DejaVuSans-55" transform="translate(386.621094 0.015625)"/>
      <use xlink:href="#DejaVuSans-52" transform="translate(425.734375 0.015625)"/>
      <use xlink:href="#DejaVuSans-57" transform="translate(486.916016 0.015625)"/>
      <use xlink:href="#DejaVuSans-44" transform="translate(526.125 0.015625)"/>
      <use xlink:href="#DejaVuSans-57" transform="translate(587.404297 0.015625)"/>
      <use xlink:href="#DejaVuSans-4c" transform="translate(626.613281 0.015625)"/>
      <use xlink:href="#DejaVuSans-52" transform="translate(654.396484 0.015625)"/>
      <use xlink:href="#DejaVuSans-51" transform="translate(715.578125 0.015625)"/>
      <use xlink:href="#DejaVuSans-3" transform="translate(778.957031 0.015625)"/>
      <use xlink:href="#DejaVuSans-Oblique-5a" transform="translate(810.744141 0.015625)"/>
      <use xlink:href="#DejaVuSans-20" transform="translate(912.013672 0.015625)"/>
      <use xlink:href="#DejaVuSans-14" transform="translate(1015.285156 0.015625)"/>
      <use xlink:href="#DejaVuSans-11" transform="translate(1078.908203 0.015625)"/>
      <use xlink:href="#DejaVuSans-18" transform="translate(1110.695312 0.015625)"/>
     </g>
    </g>
   </g>
  </g>
  <g id="axes_2">
   <g id="patch_7">
    <path d="M 48.285396 441.198979 
L 616.19976 441.198979 
L 616.19976 250.968683 
L 48.285396 250.968683 
z
" style="fill: #ffffff"/>
   </g>
   <g id="matplotlib.axis_3">
    <g id="xtick_8">
     <g id="line2d_40">
      <path d="M 74.099686 441.198979 
L 74.099686 250.968683 
" clip-path="url(#p0d4e2dff4f)" style="fill: none; stroke: #b0b0b0; stroke-opacity: 0.2; stroke-width: 0.8; stroke-linecap: square"/>
     </g>
     <g id="line2d_41">
      <g>
       <use xlink:href="#ma8d6113dae" x="74.099686" y="441.198979" style="stroke: #000000; stroke-width: 0.8"/>
      </g>
     </g>
     <g id="text_16">
      <!-- 0 -->
      <g transform="translate(70.918436 455.796635) scale(0.1 -0.1)">
       <use xlink:href="#DejaVuSans-13"/>
      </g>
     </g>
    </g>
    <g id="xtick_9">
     <g id="line2d_42">
      <path d="M 156.26912 441.198979 
L 156.26912 250.968683 
" clip-path="url(#p0d4e2dff4f)" style="fill: none; stroke: #b0b0b0; stroke-opacity: 0.2; stroke-width: 0.8; stroke-linecap: square"/>
     </g>
     <g id="line2d_43">
      <g>
       <use xlink:href="#ma8d6113dae" x="156.26912" y="441.198979" style="stroke: #000000; stroke-width: 0.8"/>
      </g>
     </g>
     <g id="text_17">
      <!-- 1 -->
      <g transform="translate(153.08787 455.796635) scale(0.1 -0.1)">
       <use xlink:href="#DejaVuSans-14"/>
      </g>
     </g>
    </g>
    <g id="xtick_10">
     <g id="line2d_44">
      <path d="M 238.438555 441.198979 
L 238.438555 250.968683 
" clip-path="url(#p0d4e2dff4f)" style="fill: none; stroke: #b0b0b0; stroke-opacity: 0.2; stroke-width: 0.8; stroke-linecap: square"/>
     </g>
     <g id="line2d_45">
      <g>
       <use xlink:href="#ma8d6113dae" x="238.438555" y="441.198979" style="stroke: #000000; stroke-width: 0.8"/>
      </g>
     </g>
     <g id="text_18">
      <!-- 2 -->
      <g transform="translate(235.257305 455.796635) scale(0.1 -0.1)">
       <use xlink:href="#DejaVuSans-15"/>
      </g>
     </g>
    </g>
    <g id="xtick_11">
     <g id="line2d_46">
      <path d="M 320.60799 441.198979 
L 320.60799 250.968683 
" clip-path="url(#p0d4e2dff4f)" style="fill: none; stroke: #b0b0b0; stroke-opacity: 0.2; stroke-width: 0.8; stroke-linecap: square"/>
     </g>
     <g id="line2d_47">
      <g>
       <use xlink:href="#ma8d6113dae" x="320.60799" y="441.198979" style="stroke: #000000; stroke-width: 0.8"/>
      </g>
     </g>
     <g id="text_19">
      <!-- 3 -->
      <g transform="translate(317.42674 455.796635) scale(0.1 -0.1)">
       <defs>
        <path id="DejaVuSans-16" d="M 2597 2516 
Q 3050 2419 3304 2112 
Q 3559 1806 3559 1356 
Q 3559 666 3084 287 
Q 2609 -91 1734 -91 
Q 1441 -91 1130 -33 
Q 819 25 488 141 
L 488 750 
Q 750 597 1062 519 
Q 1375 441 1716 441 
Q 2309 441 2620 675 
Q 2931 909 2931 1356 
Q 2931 1769 2642 2001 
Q 2353 2234 1838 2234 
L 1294 2234 
L 1294 2753 
L 1863 2753 
Q 2328 2753 2575 2939 
Q 2822 3125 2822 3475 
Q 2822 3834 2567 4026 
Q 2313 4219 1838 4219 
Q 1578 4219 1281 4162 
Q 984 4106 628 3988 
L 628 4550 
Q 988 4650 1302 4700 
Q 1616 4750 1894 4750 
Q 2613 4750 3031 4423 
Q 3450 4097 3450 3541 
Q 3450 3153 3228 2886 
Q 3006 2619 2597 2516 
z
" transform="scale(0.015625)"/>
       </defs>
       <use xlink:href="#DejaVuSans-16"/>
      </g>
     </g>
    </g>
    <g id="xtick_12">
     <g id="line2d_48">
      <path d="M 402.777425 441.198979 
L 402.777425 250.968683 
" clip-path="url(#p0d4e2dff4f)" style="fill: none; stroke: #b0b0b0; stroke-opacity: 0.2; stroke-width: 0.8; stroke-linecap: square"/>
     </g>
     <g id="line2d_49">
      <g>
       <use xlink:href="#ma8d6113dae" x="402.777425" y="441.198979" style="stroke: #000000; stroke-width: 0.8"/>
      </g>
     </g>
     <g id="text_20">
      <!-- 4 -->
      <g transform="translate(399.596175 455.796635) scale(0.1 -0.1)">
       <use xlink:href="#DejaVuSans-17"/>
      </g>
     </g>
    </g>
    <g id="xtick_13">
     <g id="line2d_50">
      <path d="M 484.946859 441.198979 
L 484.946859 250.968683 
" clip-path="url(#p0d4e2dff4f)" style="fill: none; stroke: #b0b0b0; stroke-opacity: 0.2; stroke-width: 0.8; stroke-linecap: square"/>
     </g>
     <g id="line2d_51">
      <g>
       <use xlink:href="#ma8d6113dae" x="484.946859" y="441.198979" style="stroke: #000000; stroke-width: 0.8"/>
      </g>
     </g>
     <g id="text_21">
      <!-- 5 -->
      <g transform="translate(481.765609 455.796635) scale(0.1 -0.1)">
       <use xlink:href="#DejaVuSans-18"/>
      </g>
     </g>
    </g>
    <g id="xtick_14">
     <g id="line2d_52">
      <path d="M 567.116294 441.198979 
L 567.116294 250.968683 
" clip-path="url(#p0d4e2dff4f)" style="fill: none; stroke: #b0b0b0; stroke-opacity: 0.2; stroke-width: 0.8; stroke-linecap: square"/>
     </g>
     <g id="line2d_53">
      <g>
       <use xlink:href="#ma8d6113dae" x="567.116294" y="441.198979" style="stroke: #000000; stroke-width: 0.8"/>
      </g>
     </g>
     <g id="text_22">
      <!-- 6 -->
      <g transform="translate(563.935044 455.796635) scale(0.1 -0.1)">
       <use xlink:href="#DejaVuSans-19"/>
      </g>
     </g>
    </g>
    <g id="text_23">
     <!-- Dimensionless time (not calibrated to months) -->
     <g transform="translate(215.712109 469.797416) scale(0.1 -0.1)">
      <defs>
       <path id="DejaVuSans-27" d="M 1259 4147 
L 1259 519 
L 2022 519 
Q 2988 519 3436 956 
Q 3884 1394 3884 2338 
Q 3884 3275 3436 3711 
Q 2988 4147 2022 4147 
L 1259 4147 
z
M 628 4666 
L 1925 4666 
Q 3281 4666 3915 4102 
Q 4550 3538 4550 2338 
Q 4550 1131 3912 565 
Q 3275 0 1925 0 
L 628 0 
L 628 4666 
z
" transform="scale(0.015625)"/>
       <path id="DejaVuSans-45" d="M 3116 1747 
Q 3116 2381 2855 2742 
Q 2594 3103 2138 3103 
Q 1681 3103 1420 2742 
Q 1159 2381 1159 1747 
Q 1159 1113 1420 752 
Q 1681 391 2138 391 
Q 2594 391 2855 752 
Q 3116 1113 3116 1747 
z
M 1159 2969 
Q 1341 3281 1617 3432 
Q 1894 3584 2278 3584 
Q 2916 3584 3314 3078 
Q 3713 2572 3713 1747 
Q 3713 922 3314 415 
Q 2916 -91 2278 -91 
Q 1894 -91 1617 61 
Q 1341 213 1159 525 
L 1159 0 
L 581 0 
L 581 4863 
L 1159 4863 
L 1159 2969 
z
" transform="scale(0.015625)"/>
      </defs>
      <use xlink:href="#DejaVuSans-27"/>
      <use xlink:href="#DejaVuSans-4c" transform="translate(77 0)"/>
      <use xlink:href="#DejaVuSans-50" transform="translate(104.78125 0)"/>
      <use xlink:href="#DejaVuSans-48" transform="translate(202.1875 0)"/>
      <use xlink:href="#DejaVuSans-51" transform="translate(263.71875 0)"/>
      <use xlink:href="#DejaVuSans-56" transform="translate(327.09375 0)"/>
      <use xlink:href="#DejaVuSans-4c" transform="translate(379.1875 0)"/>
      <use xlink:href="#DejaVuSans-52" transform="translate(406.96875 0)"/>
      <use xlink:href="#DejaVuSans-51" transform="translate(468.15625 0)"/>
      <use xlink:href="#DejaVuSans-4f" transform="translate(531.53125 0)"/>
      <use xlink:href="#DejaVuSans-48" transform="translate(559.3125 0)"/>
      <use xlink:href="#DejaVuSans-56" transform="translate(620.84375 0)"/>
      <use xlink:href="#DejaVuSans-56" transform="translate(672.9375 0)"/>
      <use xlink:href="#DejaVuSans-3" transform="translate(725.03125 0)"/>
      <use xlink:href="#DejaVuSans-57" transform="translate(756.8125 0)"/>
      <use xlink:href="#DejaVuSans-4c" transform="translate(796.015625 0)"/>
      <use xlink:href="#DejaVuSans-50" transform="translate(823.796875 0)"/>
      <use xlink:href="#DejaVuSans-48" transform="translate(921.203125 0)"/>
      <use xlink:href="#DejaVuSans-3" transform="translate(982.734375 0)"/>
      <use xlink:href="#DejaVuSans-b" transform="translate(1014.515625 0)"/>
      <use xlink:href="#DejaVuSans-51" transform="translate(1053.53125 0)"/>
      <use xlink:href="#DejaVuSans-52" transform="translate(1116.90625 0)"/>
      <use xlink:href="#DejaVuSans-57" transform="translate(1178.09375 0)"/>
      <use xlink:href="#DejaVuSans-3" transform="translate(1217.296875 0)"/>
      <use xlink:href="#DejaVuSans-46" transform="translate(1249.078125 0)"/>
      <use xlink:href="#DejaVuSans-44" transform="translate(1304.0625 0)"/>
      <use xlink:href="#DejaVuSans-4f" transform="translate(1365.34375 0)"/>
      <use xlink:href="#DejaVuSans-4c" transform="translate(1393.125 0)"/>
      <use xlink:href="#DejaVuSans-45" transform="translate(1420.90625 0)"/>
      <use xlink:href="#DejaVuSans-55" transform="translate(1484.390625 0)"/>
      <use xlink:href="#DejaVuSans-44" transform="translate(1525.5 0)"/>
      <use xlink:href="#DejaVuSans-57" transform="translate(1586.78125 0)"/>
      <use xlink:href="#DejaVuSans-48" transform="translate(1625.984375 0)"/>
      <use xlink:href="#DejaVuSans-47" transform="translate(1687.515625 0)"/>
      <use xlink:href="#DejaVuSans-3" transform="translate(1751 0)"/>
      <use xlink:href="#DejaVuSans-57" transform="translate(1782.78125 0)"/>
      <use xlink:href="#DejaVuSans-52" transform="translate(1821.984375 0)"/>
      <use xlink:href="#DejaVuSans-3" transform="translate(1883.171875 0)"/>
      <use xlink:href="#DejaVuSans-50" transform="translate(1914.953125 0)"/>
      <use xlink:href="#DejaVuSans-52" transform="translate(2012.359375 0)"/>
      <use xlink:href="#DejaVuSans-51" transform="translate(2073.546875 0)"/>
      <use xlink:href="#DejaVuSans-57" transform="translate(2136.921875 0)"/>
      <use xlink:href="#DejaVuSans-4b" transform="translate(2176.125 0)"/>
      <use xlink:href="#DejaVuSans-56" transform="translate(2239.5 0)"/>
      <use xlink:href="#DejaVuSans-c" transform="translate(2291.59375 0)"/>
     </g>
    </g>
   </g>
   <g id="matplotlib.axis_4">
    <g id="ytick_10">
     <g id="line2d_54">
      <path d="M 48.285396 441.198979 
L 616.19976 441.198979 
" clip-path="url(#p0d4e2dff4f)" style="fill: none; stroke: #b0b0b0; stroke-opacity: 0.2; stroke-width: 0.8; stroke-linecap: square"/>
     </g>
     <g id="line2d_55">
      <g>
       <use xlink:href="#mefe72823ce" x="48.285396" y="441.198979" style="stroke: #000000; stroke-width: 0.8"/>
      </g>
     </g>
     <g id="text_24">
      <!-- 0.00 -->
      <g transform="translate(19.019771 444.997807) scale(0.1 -0.1)">
       <use xlink:href="#DejaVuSans-13"/>
       <use xlink:href="#DejaVuSans-11" transform="translate(63.625 0)"/>
       <use xlink:href="#DejaVuSans-13" transform="translate(95.40625 0)"/>
       <use xlink:href="#DejaVuSans-13" transform="translate(159.03125 0)"/>
      </g>
     </g>
    </g>
    <g id="ytick_11">
     <g id="line2d_56">
      <path d="M 48.285396 403.15292 
L 616.19976 403.15292 
" clip-path="url(#p0d4e2dff4f)" style="fill: none; stroke: #b0b0b0; stroke-opacity: 0.2; stroke-width: 0.8; stroke-linecap: square"/>
     </g>
     <g id="line2d_57">
      <g>
       <use xlink:href="#mefe72823ce" x="48.285396" y="403.15292" style="stroke: #000000; stroke-width: 0.8"/>
      </g>
     </g>
     <g id="text_25">
      <!-- 0.05 -->
      <g transform="translate(19.019771 406.951748) scale(0.1 -0.1)">
       <use xlink:href="#DejaVuSans-13"/>
       <use xlink:href="#DejaVuSans-11" transform="translate(63.625 0)"/>
       <use xlink:href="#DejaVuSans-13" transform="translate(95.40625 0)"/>
       <use xlink:href="#DejaVuSans-18" transform="translate(159.03125 0)"/>
      </g>
     </g>
    </g>
    <g id="ytick_12">
     <g id="line2d_58">
      <path d="M 48.285396 365.10686 
L 616.19976 365.10686 
" clip-path="url(#p0d4e2dff4f)" style="fill: none; stroke: #b0b0b0; stroke-opacity: 0.2; stroke-width: 0.8; stroke-linecap: square"/>
     </g>
     <g id="line2d_59">
      <g>
       <use xlink:href="#mefe72823ce" x="48.285396" y="365.10686" style="stroke: #000000; stroke-width: 0.8"/>
      </g>
     </g>
     <g id="text_26">
      <!-- 0.10 -->
      <g transform="translate(19.019771 368.905689) scale(0.1 -0.1)">
       <use xlink:href="#DejaVuSans-13"/>
       <use xlink:href="#DejaVuSans-11" transform="translate(63.625 0)"/>
       <use xlink:href="#DejaVuSans-14" transform="translate(95.40625 0)"/>
       <use xlink:href="#DejaVuSans-13" transform="translate(159.03125 0)"/>
      </g>
     </g>
    </g>
    <g id="ytick_13">
     <g id="line2d_60">
      <path d="M 48.285396 327.060801 
L 616.19976 327.060801 
" clip-path="url(#p0d4e2dff4f)" style="fill: none; stroke: #b0b0b0; stroke-opacity: 0.2; stroke-width: 0.8; stroke-linecap: square"/>
     </g>
     <g id="line2d_61">
      <g>
       <use xlink:href="#mefe72823ce" x="48.285396" y="327.060801" style="stroke: #000000; stroke-width: 0.8"/>
      </g>
     </g>
     <g id="text_27">
      <!-- 0.15 -->
      <g transform="translate(19.019771 330.859629) scale(0.1 -0.1)">
       <use xlink:href="#DejaVuSans-13"/>
       <use xlink:href="#DejaVuSans-11" transform="translate(63.625 0)"/>
       <use xlink:href="#DejaVuSans-14" transform="translate(95.40625 0)"/>
       <use xlink:href="#DejaVuSans-18" transform="translate(159.03125 0)"/>
      </g>
     </g>
    </g>
    <g id="ytick_14">
     <g id="line2d_62">
      <path d="M 48.285396 289.014742 
L 616.19976 289.014742 
" clip-path="url(#p0d4e2dff4f)" style="fill: none; stroke: #b0b0b0; stroke-opacity: 0.2; stroke-width: 0.8; stroke-linecap: square"/>
     </g>
     <g id="line2d_63">
      <g>
       <use xlink:href="#mefe72823ce" x="48.285396" y="289.014742" style="stroke: #000000; stroke-width: 0.8"/>
      </g>
     </g>
     <g id="text_28">
      <!-- 0.20 -->
      <g transform="translate(19.019771 292.81357) scale(0.1 -0.1)">
       <use xlink:href="#DejaVuSans-13"/>
       <use xlink:href="#DejaVuSans-11" transform="translate(63.625 0)"/>
       <use xlink:href="#DejaVuSans-15" transform="translate(95.40625 0)"/>
       <use xlink:href="#DejaVuSans-13" transform="translate(159.03125 0)"/>
      </g>
     </g>
    </g>
    <g id="ytick_15">
     <g id="line2d_64">
      <path d="M 48.285396 250.968683 
L 616.19976 250.968683 
" clip-path="url(#p0d4e2dff4f)" style="fill: none; stroke: #b0b0b0; stroke-opacity: 0.2; stroke-width: 0.8; stroke-linecap: square"/>
     </g>
     <g id="line2d_65">
      <g>
       <use xlink:href="#mefe72823ce" x="48.285396" y="250.968683" style="stroke: #000000; stroke-width: 0.8"/>
      </g>
     </g>
     <g id="text_29">
      <!-- 0.25 -->
      <g transform="translate(19.019771 254.767511) scale(0.1 -0.1)">
       <use xlink:href="#DejaVuSans-13"/>
       <use xlink:href="#DejaVuSans-11" transform="translate(63.625 0)"/>
       <use xlink:href="#DejaVuSans-15" transform="translate(95.40625 0)"/>
       <use xlink:href="#DejaVuSans-18" transform="translate(159.03125 0)"/>
      </g>
     </g>
    </g>
    <g id="text_30">
     <!-- $\langle E^2\rangle=3/20$ -->
     <g transform="translate(12.617428 373.233831) rotate(-90) scale(0.1 -0.1)">
      <defs>
       <path id="DejaVuSans-1047" d="M 572 2006 
L 1453 4856 
L 1984 4856 
L 1103 2006 
L 1984 -844 
L 1453 -844 
L 572 2006 
z
" transform="scale(0.015625)"/>
       <path id="DejaVuSans-1048" d="M 1925 2006 
L 1044 -844 
L 513 -844 
L 1394 2006 
L 513 4856 
L 1044 4856 
L 1925 2006 
z
" transform="scale(0.015625)"/>
      </defs>
      <use xlink:href="#DejaVuSans-1047" transform="translate(0 0.746875)"/>
      <use xlink:href="#DejaVuSans-Oblique-28" transform="translate(39.013672 0.746875)"/>
      <use xlink:href="#DejaVuSans-15" transform="translate(109.214036 42.046875) scale(0.7)"/>
      <use xlink:href="#DejaVuSans-1048" transform="translate(156.484544 0.746875)"/>
      <use xlink:href="#DejaVuSans-20" transform="translate(214.980638 0.746875)"/>
      <use xlink:href="#DejaVuSans-16" transform="translate(318.252122 0.746875)"/>
      <use xlink:href="#DejaVuSans-12" transform="translate(381.875169 0.746875)"/>
      <use xlink:href="#DejaVuSans-15" transform="translate(415.566576 0.746875)"/>
      <use xlink:href="#DejaVuSans-13" transform="translate(479.189622 0.746875)"/>
     </g>
    </g>
   </g>
   <g id="line2d_66">
    <path d="M 74.099686 327.060801 
L 590.385471 327.060801 
L 590.385471 327.060801 
" clip-path="url(#p0d4e2dff4f)" style="fill: none; stroke: #417b5a; stroke-width: 2.5; stroke-linecap: square"/>
   </g>
   <g id="patch_8">
    <path d="M 48.285396 441.198979 
L 48.285396 250.968683 
" style="fill: none; stroke: #000000; stroke-width: 0.8; stroke-linejoin: miter; stroke-linecap: square"/>
   </g>
   <g id="patch_9">
    <path d="M 48.285396 441.198979 
L 616.19976 441.198979 
" style="fill: none; stroke: #000000; stroke-width: 0.8; stroke-linejoin: miter; stroke-linecap: square"/>
   </g>
   <g id="text_31">
    <!-- A shape invariant persists in this exact family -->
    <g transform="translate(195.256953 244.968683) scale(0.12 -0.12)">
     <defs>
      <path id="DejaVuSans-24" d="M 2188 4044 
L 1331 1722 
L 3047 1722 
L 2188 4044 
z
M 1831 4666 
L 2547 4666 
L 4325 0 
L 3669 0 
L 3244 1197 
L 1141 1197 
L 716 0 
L 50 0 
L 1831 4666 
z
" transform="scale(0.015625)"/>
      <path id="DejaVuSans-5c" d="M 2059 -325 
Q 1816 -950 1584 -1140 
Q 1353 -1331 966 -1331 
L 506 -1331 
L 506 -850 
L 844 -850 
Q 1081 -850 1212 -737 
Q 1344 -625 1503 -206 
L 1606 56 
L 191 3500 
L 800 3500 
L 1894 763 
L 2988 3500 
L 3597 3500 
L 2059 -325 
z
" transform="scale(0.015625)"/>
     </defs>
     <use xlink:href="#DejaVuSans-24"/>
     <use xlink:href="#DejaVuSans-3" transform="translate(68.40625 0)"/>
     <use xlink:href="#DejaVuSans-56" transform="translate(100.1875 0)"/>
     <use xlink:href="#DejaVuSans-4b" transform="translate(152.28125 0)"/>
     <use xlink:href="#DejaVuSans-44" transform="translate(215.65625 0)"/>
     <use xlink:href="#DejaVuSans-53" transform="translate(276.9375 0)"/>
     <use xlink:href="#DejaVuSans-48" transform="translate(340.421875 0)"/>
     <use xlink:href="#DejaVuSans-3" transform="translate(401.953125 0)"/>
     <use xlink:href="#DejaVuSans-4c" transform="translate(433.734375 0)"/>
     <use xlink:href="#DejaVuSans-51" transform="translate(461.515625 0)"/>
     <use xlink:href="#DejaVuSans-59" transform="translate(524.890625 0)"/>
     <use xlink:href="#DejaVuSans-44" transform="translate(584.078125 0)"/>
     <use xlink:href="#DejaVuSans-55" transform="translate(645.359375 0)"/>
     <use xlink:href="#DejaVuSans-4c" transform="translate(686.46875 0)"/>
     <use xlink:href="#DejaVuSans-44" transform="translate(714.25 0)"/>
     <use xlink:href="#DejaVuSans-51" transform="translate(775.53125 0)"/>
     <use xlink:href="#DejaVuSans-57" transform="translate(838.90625 0)"/>
     <use xlink:href="#DejaVuSans-3" transform="translate(878.109375 0)"/>
     <use xlink:href="#DejaVuSans-53" transform="translate(909.890625 0)"/>
     <use xlink:href="#DejaVuSans-48" transform="translate(973.375 0)"/>
     <use xlink:href="#DejaVuSans-55" transform="translate(1034.90625 0)"/>
     <use xlink:href="#DejaVuSans-56" transform="translate(1076.015625 0)"/>
     <use xlink:href="#DejaVuSans-4c" transform="translate(1128.109375 0)"/>
     <use xlink:href="#DejaVuSans-56" transform="translate(1155.890625 0)"/>
     <use xlink:href="#DejaVuSans-57" transform="translate(1207.984375 0)"/>
     <use xlink:href="#DejaVuSans-56" transform="translate(1247.1875 0)"/>
     <use xlink:href="#DejaVuSans-3" transform="translate(1299.28125 0)"/>
     <use xlink:href="#DejaVuSans-4c" transform="translate(1331.0625 0)"/>
     <use xlink:href="#DejaVuSans-51" transform="translate(1358.84375 0)"/>
     <use xlink:href="#DejaVuSans-3" transform="translate(1422.21875 0)"/>
     <use xlink:href="#DejaVuSans-57" transform="translate(1454 0)"/>
     <use xlink:href="#DejaVuSans-4b" transform="translate(1493.203125 0)"/>
     <use xlink:href="#DejaVuSans-4c" transform="translate(1556.578125 0)"/>
     <use xlink:href="#DejaVuSans-56" transform="translate(1584.359375 0)"/>
     <use xlink:href="#DejaVuSans-3" transform="translate(1636.453125 0)"/>
     <use xlink:href="#DejaVuSans-48" transform="translate(1668.234375 0)"/>
     <use xlink:href="#DejaVuSans-5b" transform="translate(1728.015625 0)"/>
     <use xlink:href="#DejaVuSans-44" transform="translate(1787.203125 0)"/>
     <use xlink:href="#DejaVuSans-46" transform="translate(1848.484375 0)"/>
     <use xlink:href="#DejaVuSans-57" transform="translate(1903.46875 0)"/>
     <use xlink:href="#DejaVuSans-3" transform="translate(1942.671875 0)"/>
     <use xlink:href="#DejaVuSans-49" transform="translate(1974.453125 0)"/>
     <use xlink:href="#DejaVuSans-44" transform="translate(2009.65625 0)"/>
     <use xlink:href="#DejaVuSans-50" transform="translate(2070.9375 0)"/>
     <use xlink:href="#DejaVuSans-4c" transform="translate(2168.34375 0)"/>
     <use xlink:href="#DejaVuSans-4f" transform="translate(2196.125 0)"/>
     <use xlink:href="#DejaVuSans-5c" transform="translate(2223.90625 0)"/>
    </g>
   </g>
   <g id="legend_2">
    <g id="patch_10">
     <path d="M 395.394604 436.698979 
L 609.89976 436.698979 
Q 611.69976 436.698979 611.69976 434.898979 
L 611.69976 422.298276 
Q 611.69976 420.498276 609.89976 420.498276 
L 395.394604 420.498276 
Q 393.594604 420.498276 393.594604 422.298276 
L 393.594604 434.898979 
Q 393.594604 436.698979 395.394604 436.698979 
z
" style="fill: #ffffff; opacity: 0.8; stroke: #cccccc; stroke-linejoin: miter"/>
    </g>
    <g id="line2d_67">
     <path d="M 397.194604 427.786869 
L 406.194604 427.786869 
L 415.194604 427.786869 
" style="fill: none; stroke: #417b5a; stroke-width: 2.5; stroke-linecap: square"/>
    </g>
    <g id="text_32">
     <!-- All three rotations: identical shape power -->
     <g transform="translate(422.394604 430.936869) scale(0.09 -0.09)">
      <use xlink:href="#DejaVuSans-24"/>
      <use xlink:href="#DejaVuSans-4f" transform="translate(68.40625 0)"/>
      <use xlink:href="#DejaVuSans-4f" transform="translate(96.1875 0)"/>
      <use xlink:href="#DejaVuSans-3" transform="translate(123.96875 0)"/>
      <use xlink:href="#DejaVuSans-57" transform="translate(155.75 0)"/>
      <use xlink:href="#DejaVuSans-4b" transform="translate(194.953125 0)"/>
      <use xlink:href="#DejaVuSans-55" transform="translate(258.328125 0)"/>
      <use xlink:href="#DejaVuSans-48" transform="translate(297.234375 0)"/>
      <use xlink:href="#DejaVuSans-48" transform="translate(358.765625 0)"/>
      <use xlink:href="#DejaVuSans-3" transform="translate(420.296875 0)"/>
      <use xlink:href="#DejaVuSans-55" transform="translate(452.078125 0)"/>
      <use xlink:href="#DejaVuSans-52" transform="translate(490.984375 0)"/>
      <use xlink:href="#DejaVuSans-57" transform="translate(552.171875 0)"/>
      <use xlink:href="#DejaVuSans-44" transform="translate(591.375 0)"/>
      <use xlink:href="#DejaVuSans-57" transform="translate(652.65625 0)"/>
      <use xlink:href="#DejaVuSans-4c" transform="translate(691.859375 0)"/>
      <use xlink:href="#DejaVuSans-52" transform="translate(719.640625 0)"/>
      <use xlink:href="#DejaVuSans-51" transform="translate(780.828125 0)"/>
      <use xlink:href="#DejaVuSans-56" transform="translate(844.203125 0)"/>
      <use xlink:href="#DejaVuSans-1d" transform="translate(896.296875 0)"/>
      <use xlink:href="#DejaVuSans-3" transform="translate(929.984375 0)"/>
      <use xlink:href="#DejaVuSans-4c" transform="translate(961.765625 0)"/>
      <use xlink:href="#DejaVuSans-47" transform="translate(989.546875 0)"/>
      <use xlink:href="#DejaVuSans-48" transform="translate(1053.03125 0)"/>
      <use xlink:href="#DejaVuSans-51" transform="translate(1114.5625 0)"/>
      <use xlink:href="#DejaVuSans-57" transform="translate(1177.9375 0)"/>
      <use xlink:href="#DejaVuSans-4c" transform="translate(1217.140625 0)"/>
      <use xlink:href="#DejaVuSans-46" transform="translate(1244.921875 0)"/>
      <use xlink:href="#DejaVuSans-44" transform="translate(1299.90625 0)"/>
      <use xlink:href="#DejaVuSans-4f" transform="translate(1361.1875 0)"/>
      <use xlink:href="#DejaVuSans-3" transform="translate(1388.96875 0)"/>
      <use xlink:href="#DejaVuSans-56" transform="translate(1420.75 0)"/>
      <use xlink:href="#DejaVuSans-4b" transform="translate(1472.84375 0)"/>
      <use xlink:href="#DejaVuSans-44" transform="translate(1536.21875 0)"/>
      <use xlink:href="#DejaVuSans-53" transform="translate(1597.5 0)"/>
      <use xlink:href="#DejaVuSans-48" transform="translate(1660.984375 0)"/>
      <use xlink:href="#DejaVuSans-3" transform="translate(1722.515625 0)"/>
      <use xlink:href="#DejaVuSans-53" transform="translate(1754.296875 0)"/>
      <use xlink:href="#DejaVuSans-52" transform="translate(1817.78125 0)"/>
      <use xlink:href="#DejaVuSans-5a" transform="translate(1878.96875 0)"/>
      <use xlink:href="#DejaVuSans-48" transform="translate(1960.75 0)"/>
      <use xlink:href="#DejaVuSans-55" transform="translate(2022.28125 0)"/>
     </g>
    </g>
   </g>
  </g>
  <g id="text_33">
   <!-- Ideal spherical flow · analytic curves, not weather forecasts -->
   <g transform="translate(130.920937 12.118365) scale(0.12 -0.12)">
    <defs>
     <path id="DejaVuSans-2c" d="M 628 4666 
L 1259 4666 
L 1259 0 
L 628 0 
L 628 4666 
z
" transform="scale(0.015625)"/>
     <path id="DejaVuSans-13b0" d="M 1831 4863 
L 3431 4863 
L 3431 0 
L 2853 0 
L 2853 4384 
L 1825 4384 
Q 1516 4384 1395 4259 
Q 1275 4134 1275 3809 
L 1275 3500 
L 2222 3500 
L 2222 3053 
L 1275 3053 
L 1275 0 
L 697 0 
L 697 3053 
L 147 3053 
L 147 3500 
L 697 3500 
L 697 3744 
Q 697 4328 969 4595 
Q 1241 4863 1831 4863 
z
" transform="scale(0.015625)"/>
     <path id="DejaVuSans-79" d="M 684 2619 
L 1344 2619 
L 1344 1825 
L 684 1825 
L 684 2619 
z
" transform="scale(0.015625)"/>
    </defs>
    <use xlink:href="#DejaVuSans-2c"/>
    <use xlink:href="#DejaVuSans-47" transform="translate(29.5 0)"/>
    <use xlink:href="#DejaVuSans-48" transform="translate(92.984375 0)"/>
    <use xlink:href="#DejaVuSans-44" transform="translate(154.515625 0)"/>
    <use xlink:href="#DejaVuSans-4f" transform="translate(215.796875 0)"/>
    <use xlink:href="#DejaVuSans-3" transform="translate(243.578125 0)"/>
    <use xlink:href="#DejaVuSans-56" transform="translate(275.359375 0)"/>
    <use xlink:href="#DejaVuSans-53" transform="translate(327.453125 0)"/>
    <use xlink:href="#DejaVuSans-4b" transform="translate(390.9375 0)"/>
    <use xlink:href="#DejaVuSans-48" transform="translate(454.3125 0)"/>
    <use xlink:href="#DejaVuSans-55" transform="translate(515.84375 0)"/>
    <use xlink:href="#DejaVuSans-4c" transform="translate(556.953125 0)"/>
    <use xlink:href="#DejaVuSans-46" transform="translate(584.734375 0)"/>
    <use xlink:href="#DejaVuSans-44" transform="translate(639.71875 0)"/>
    <use xlink:href="#DejaVuSans-4f" transform="translate(701 0)"/>
    <use xlink:href="#DejaVuSans-3" transform="translate(728.78125 0)"/>
    <use xlink:href="#DejaVuSans-13b0" transform="translate(760.5625 0)"/>
    <use xlink:href="#DejaVuSans-52" transform="translate(823.546875 0)"/>
    <use xlink:href="#DejaVuSans-5a" transform="translate(884.734375 0)"/>
    <use xlink:href="#DejaVuSans-3" transform="translate(966.515625 0)"/>
    <use xlink:href="#DejaVuSans-79" transform="translate(998.296875 0)"/>
    <use xlink:href="#DejaVuSans-3" transform="translate(1030.078125 0)"/>
    <use xlink:href="#DejaVuSans-44" transform="translate(1061.859375 0)"/>
    <use xlink:href="#DejaVuSans-51" transform="translate(1123.140625 0)"/>
    <use xlink:href="#DejaVuSans-44" transform="translate(1186.515625 0)"/>
    <use xlink:href="#DejaVuSans-4f" transform="translate(1247.796875 0)"/>
    <use xlink:href="#DejaVuSans-5c" transform="translate(1275.578125 0)"/>
    <use xlink:href="#DejaVuSans-57" transform="translate(1334.765625 0)"/>
    <use xlink:href="#DejaVuSans-4c" transform="translate(1373.96875 0)"/>
    <use xlink:href="#DejaVuSans-46" transform="translate(1401.75 0)"/>
    <use xlink:href="#DejaVuSans-3" transform="translate(1456.734375 0)"/>
    <use xlink:href="#DejaVuSans-46" transform="translate(1488.515625 0)"/>
    <use xlink:href="#DejaVuSans-58" transform="translate(1543.5 0)"/>
    <use xlink:href="#DejaVuSans-55" transform="translate(1606.875 0)"/>
    <use xlink:href="#DejaVuSans-59" transform="translate(1647.984375 0)"/>
    <use xlink:href="#DejaVuSans-48" transform="translate(1707.171875 0)"/>
    <use xlink:href="#DejaVuSans-56" transform="translate(1768.703125 0)"/>
    <use xlink:href="#DejaVuSans-f" transform="translate(1820.796875 0)"/>
    <use xlink:href="#DejaVuSans-3" transform="translate(1852.578125 0)"/>
    <use xlink:href="#DejaVuSans-51" transform="translate(1884.359375 0)"/>
    <use xlink:href="#DejaVuSans-52" transform="translate(1947.734375 0)"/>
    <use xlink:href="#DejaVuSans-57" transform="translate(2008.921875 0)"/>
    <use xlink:href="#DejaVuSans-3" transform="translate(2048.125 0)"/>
    <use xlink:href="#DejaVuSans-5a" transform="translate(2079.90625 0)"/>
    <use xlink:href="#DejaVuSans-48" transform="translate(2161.6875 0)"/>
    <use xlink:href="#DejaVuSans-44" transform="translate(2223.21875 0)"/>
    <use xlink:href="#DejaVuSans-57" transform="translate(2284.5 0)"/>
    <use xlink:href="#DejaVuSans-4b" transform="translate(2323.703125 0)"/>
    <use xlink:href="#DejaVuSans-48" transform="translate(2387.078125 0)"/>
    <use xlink:href="#DejaVuSans-55" transform="translate(2448.609375 0)"/>
    <use xlink:href="#DejaVuSans-3" transform="translate(2489.71875 0)"/>
    <use xlink:href="#DejaVuSans-49" transform="translate(2521.5 0)"/>
    <use xlink:href="#DejaVuSans-52" transform="translate(2556.703125 0)"/>
    <use xlink:href="#DejaVuSans-55" transform="translate(2617.890625 0)"/>
    <use xlink:href="#DejaVuSans-48" transform="translate(2656.796875 0)"/>
    <use xlink:href="#DejaVuSans-46" transform="translate(2718.328125 0)"/>
    <use xlink:href="#DejaVuSans-44" transform="translate(2773.3125 0)"/>
    <use xlink:href="#DejaVuSans-56" transform="translate(2834.59375 0)"/>
    <use xlink:href="#DejaVuSans-57" transform="translate(2886.6875 0)"/>
    <use xlink:href="#DejaVuSans-56" transform="translate(2925.890625 0)"/>
   </g>
  </g>
 </g>
 <defs>
  <clipPath id="p21f3a8da6a">
   <rect x="48.285396" y="36.119782" width="567.914364" height="190.230296"/>
  </clipPath>
  <clipPath id="p0d4e2dff4f">
   <rect x="48.285396" y="250.968683" width="567.914364" height="190.230296"/>
  </clipPath>
 </defs>
</svg>
